<?xml version="1.0" encoding="UTF-8"?>
<svg xmlns="http://www.w3.org/2000/svg" xmlns:xlink="http://www.w3.org/1999/xlink" width="2000" height="2000" viewBox="0 0 2000 2000">
<defs>
<clipPath id="clip-0">
<path clip-rule="nonzero" d="M 2000 2000 L 0 2000 L 0 0 L 2000 0 L 2000 2000 M 1374.640625 1616.03125 C 1383.488281 1626.398438 1396.578125 1632.519531 1410.371094 1632.519531 C 1414.921875 1632.519531 1419.539062 1631.859375 1424.109375 1630.460938 C 1438.601562 1626.039062 1449.390625 1615.25 1454.351562 1602.089844 L 1767.699219 1602.089844 C 1846.308594 1602.089844 1910.039062 1541.28125 1910.039062 1466.261719 L 1910.039062 1452.5 C 1910.039062 1377.480469 1846.308594 1316.671875 1767.699219 1316.671875 L 1727.289062 1316.671875 C 1706.511719 1202.019531 1601.851562 1114.800781 1475.769531 1114.800781 L 1360.371094 1114.800781 C 1411.03125 1114.800781 1452.101562 1075.609375 1452.101562 1027.261719 C 1452.101562 978.921875 1411.03125 939.730469 1360.371094 939.730469 L 1077.148438 939.730469 C 1187.140625 939.730469 1276.300781 854.648438 1276.300781 749.691406 C 1276.300781 644.738281 1187.140625 559.660156 1077.148438 559.660156 L 863.363281 559.660156 C 843.933594 543.609375 831.621094 519.910156 831.621094 493.46875 C 831.621094 463.390625 847.515625 436.871094 871.722656 421.109375 L 1001.710938 421.109375 C 1037.960938 421.109375 1067.351562 393.070312 1067.351562 358.480469 C 1067.351562 323.890625 1037.960938 295.851562 1001.710938 295.851562 L 654.542969 295.851562 C 618.292969 295.851562 588.90625 323.890625 588.90625 358.480469 C 588.90625 377.46875 597.796875 394.449219 611.777344 405.929688 L 473.519531 405.929688 C 422.859375 405.929688 381.789062 445.121094 381.789062 493.46875 C 381.789062 519.910156 394.097656 543.609375 413.53125 559.660156 L 371.988281 559.660156 C 262.003906 559.660156 172.839844 644.738281 172.839844 749.691406 C 172.839844 782.140625 181.363281 812.691406 196.386719 839.410156 C 189.519531 856.289062 186.144531 874.671875 186.859375 893.429688 C 155.191406 914.019531 137.816406 934.898438 142.648438 950.71875 C 147.296875 965.941406 171.628906 973.570312 207.160156 973.570312 C 210.671875 973.570312 214.296875 973.5 218.019531 973.351562 C 242.652344 1002.199219 279.042969 1019.230469 317.402344 1019.230469 C 330.039062 1019.230469 342.890625 1017.378906 355.605469 1013.488281 C 393.992188 1001.769531 423.050781 973.96875 437.652344 939.730469 L 875.167969 939.730469 C 824.507812 939.730469 783.441406 978.921875 783.441406 1027.261719 C 783.441406 1075.609375 824.507812 1114.800781 875.167969 1114.800781 L 428.171875 1114.800781 C 287.15625 1114.800781 172.839844 1223.878906 172.839844 1358.441406 C 172.839844 1493.011719 287.15625 1602.089844 428.171875 1602.089844 L 1348.160156 1602.089844 C 1347.230469 1604.160156 1346.988281 1606.121094 1347.539062 1607.890625 C 1349.210938 1613.371094 1357.960938 1616.109375 1370.730469 1616.109375 C 1372 1616.109375 1373.300781 1616.078125 1374.640625 1616.03125 M 1292.449219 290.828125 C 1254.859375 290.828125 1224.390625 321.121094 1224.390625 358.480469 C 1224.390625 395.851562 1254.859375 426.140625 1292.449219 426.140625 C 1330.03125 426.140625 1360.5 395.851562 1360.5 358.480469 C 1360.5 321.121094 1330.03125 290.828125 1292.449219 290.828125 M 1369.410156 1608.53125 C 1362.851562 1607.859375 1358.558594 1605.949219 1357.589844 1602.769531 C 1357.519531 1602.550781 1357.46875 1602.320312 1357.429688 1602.089844 L 1366.429688 1602.089844 C 1367.269531 1604.339844 1368.269531 1606.488281 1369.410156 1608.53125 M 203.492188 952.5 C 185.25 950.640625 173.296875 945.308594 170.597656 936.480469 C 167.964844 927.859375 174.511719 917.101562 187.90625 905.679688 C 188.84375 912.691406 190.363281 919.71875 192.496094 926.699219 C 195.292969 935.851562 199.003906 944.480469 203.492188 952.5 "/>
</clipPath>
<clipPath id="clip-1">
<path clip-rule="nonzero" d="M 2000 2000 L 0 2000 L 0 0 L 2000 0 L 2000 2000 M 1374.640625 1616.03125 C 1383.488281 1626.398438 1396.578125 1632.519531 1410.371094 1632.519531 C 1414.921875 1632.519531 1419.539062 1631.859375 1424.109375 1630.460938 C 1438.601562 1626.039062 1449.390625 1615.25 1454.351562 1602.089844 L 1767.699219 1602.089844 C 1846.308594 1602.089844 1910.039062 1541.28125 1910.039062 1466.261719 L 1910.039062 1452.5 C 1910.039062 1377.480469 1846.308594 1316.671875 1767.699219 1316.671875 L 1727.289062 1316.671875 C 1706.511719 1202.019531 1601.851562 1114.800781 1475.769531 1114.800781 L 1360.371094 1114.800781 C 1411.03125 1114.800781 1452.101562 1075.609375 1452.101562 1027.261719 C 1452.101562 978.921875 1411.03125 939.730469 1360.371094 939.730469 L 1077.148438 939.730469 C 1187.140625 939.730469 1276.300781 854.648438 1276.300781 749.691406 C 1276.300781 644.738281 1187.140625 559.660156 1077.148438 559.660156 L 863.363281 559.660156 C 843.933594 543.609375 831.621094 519.910156 831.621094 493.46875 C 831.621094 463.390625 847.515625 436.871094 871.722656 421.109375 L 1001.710938 421.109375 C 1037.960938 421.109375 1067.351562 393.070312 1067.351562 358.480469 C 1067.351562 323.890625 1037.960938 295.851562 1001.710938 295.851562 L 654.542969 295.851562 C 618.292969 295.851562 588.90625 323.890625 588.90625 358.480469 C 588.90625 377.46875 597.796875 394.449219 611.777344 405.929688 L 473.519531 405.929688 C 422.859375 405.929688 381.789062 445.121094 381.789062 493.46875 C 381.789062 519.910156 394.097656 543.609375 413.53125 559.660156 L 371.988281 559.660156 C 262.003906 559.660156 172.839844 644.738281 172.839844 749.691406 C 172.839844 782.140625 181.363281 812.691406 196.386719 839.410156 C 189.519531 856.289062 186.144531 874.671875 186.859375 893.429688 C 155.191406 914.019531 137.816406 934.898438 142.648438 950.71875 C 147.296875 965.941406 171.628906 973.570312 207.160156 973.570312 C 210.671875 973.570312 214.296875 973.5 218.019531 973.351562 C 242.652344 1002.199219 279.042969 1019.230469 317.402344 1019.230469 C 330.039062 1019.230469 342.890625 1017.378906 355.605469 1013.488281 C 393.992188 1001.769531 423.050781 973.96875 437.652344 939.730469 L 875.167969 939.730469 C 824.507812 939.730469 783.441406 978.921875 783.441406 1027.261719 C 783.441406 1075.609375 824.507812 1114.800781 875.167969 1114.800781 L 428.171875 1114.800781 C 287.15625 1114.800781 172.839844 1223.878906 172.839844 1358.441406 C 172.839844 1493.011719 287.15625 1602.089844 428.171875 1602.089844 L 1348.160156 1602.089844 C 1347.230469 1604.160156 1346.988281 1606.121094 1347.539062 1607.890625 C 1349.210938 1613.371094 1357.960938 1616.109375 1370.730469 1616.109375 C 1372 1616.109375 1373.300781 1616.078125 1374.640625 1616.03125 M 1292.449219 290.828125 C 1254.859375 290.828125 1224.390625 321.121094 1224.390625 358.480469 C 1224.390625 395.851562 1254.859375 426.140625 1292.449219 426.140625 C 1330.03125 426.140625 1360.5 395.851562 1360.5 358.480469 C 1360.5 321.121094 1330.03125 290.828125 1292.449219 290.828125 M 1369.410156 1608.53125 C 1362.851562 1607.859375 1358.558594 1605.949219 1357.589844 1602.769531 C 1357.519531 1602.550781 1357.46875 1602.320312 1357.429688 1602.089844 L 1366.429688 1602.089844 C 1367.269531 1604.339844 1368.269531 1606.488281 1369.410156 1608.53125 M 203.492188 952.5 C 185.25 950.640625 173.296875 945.308594 170.597656 936.480469 C 167.964844 927.859375 174.511719 917.101562 187.90625 905.679688 C 188.84375 912.691406 190.363281 919.71875 192.496094 926.699219 C 195.292969 935.851562 199.003906 944.480469 203.492188 952.5 "/>
</clipPath>
<linearGradient id="linear-pattern-0" gradientUnits="userSpaceOnUse" x1="-0.000000000000000114" y1="0" x2="1" y2="0" gradientTransform="matrix(0, 2000, -2000, 0, 1000, 0.000000000000222045)">
<stop offset="0" stop-color="rgb(100%, 100%, 100%)" stop-opacity="1"/>
<stop offset="0.015625" stop-color="rgb(99.887085%, 99.957275%, 99.986267%)" stop-opacity="1"/>
<stop offset="0.03125" stop-color="rgb(99.636841%, 99.861145%, 99.958801%)" stop-opacity="1"/>
<stop offset="0.046875" stop-color="rgb(99.349976%, 99.751282%, 99.926758%)" stop-opacity="1"/>
<stop offset="0.0625" stop-color="rgb(99.041748%, 99.635315%, 99.891663%)" stop-opacity="1"/>
<stop offset="0.078125" stop-color="rgb(98.718262%, 99.511719%, 99.855042%)" stop-opacity="1"/>
<stop offset="0.09375" stop-color="rgb(98.382568%, 99.383545%, 99.816895%)" stop-opacity="1"/>
<stop offset="0.109375" stop-color="rgb(98.03772%, 99.252319%, 99.778748%)" stop-opacity="1"/>
<stop offset="0.125" stop-color="rgb(97.685242%, 99.118042%, 99.737549%)" stop-opacity="1"/>
<stop offset="0.140625" stop-color="rgb(97.323608%, 98.980713%, 99.69635%)" stop-opacity="1"/>
<stop offset="0.15625" stop-color="rgb(96.954346%, 98.840332%, 99.655151%)" stop-opacity="1"/>
<stop offset="0.171875" stop-color="rgb(96.580505%, 98.698425%, 99.613953%)" stop-opacity="1"/>
<stop offset="0.1875" stop-color="rgb(96.199036%, 98.553467%, 99.571228%)" stop-opacity="1"/>
<stop offset="0.203125" stop-color="rgb(95.812988%, 98.406982%, 99.526978%)" stop-opacity="1"/>
<stop offset="0.210938" stop-color="rgb(95.521545%, 98.295593%, 99.494934%)" stop-opacity="1"/>
<stop offset="0.21875" stop-color="rgb(95.324707%, 98.220825%, 99.472046%)" stop-opacity="1"/>
<stop offset="0.226562" stop-color="rgb(95.126343%, 98.146057%, 99.449158%)" stop-opacity="1"/>
<stop offset="0.234375" stop-color="rgb(94.927979%, 98.071289%, 99.427795%)" stop-opacity="1"/>
<stop offset="0.242188" stop-color="rgb(94.728088%, 97.994995%, 99.404907%)" stop-opacity="1"/>
<stop offset="0.25" stop-color="rgb(94.526672%, 97.918701%, 99.382019%)" stop-opacity="1"/>
<stop offset="0.257812" stop-color="rgb(94.32373%, 97.840881%, 99.359131%)" stop-opacity="1"/>
<stop offset="0.265625" stop-color="rgb(94.120789%, 97.763062%, 99.336243%)" stop-opacity="1"/>
<stop offset="0.273438" stop-color="rgb(93.917847%, 97.685242%, 99.313354%)" stop-opacity="1"/>
<stop offset="0.28125" stop-color="rgb(93.711853%, 97.607422%, 99.290466%)" stop-opacity="1"/>
<stop offset="0.289062" stop-color="rgb(93.505859%, 97.529602%, 99.267578%)" stop-opacity="1"/>
<stop offset="0.296875" stop-color="rgb(93.299866%, 97.451782%, 99.243164%)" stop-opacity="1"/>
<stop offset="0.304688" stop-color="rgb(93.092346%, 97.372437%, 99.220276%)" stop-opacity="1"/>
<stop offset="0.3125" stop-color="rgb(92.883301%, 97.293091%, 99.197388%)" stop-opacity="1"/>
<stop offset="0.320312" stop-color="rgb(92.674255%, 97.213745%, 99.172974%)" stop-opacity="1"/>
<stop offset="0.328125" stop-color="rgb(92.463684%, 97.132874%, 99.150085%)" stop-opacity="1"/>
<stop offset="0.335938" stop-color="rgb(92.253113%, 97.053528%, 99.125671%)" stop-opacity="1"/>
<stop offset="0.34375" stop-color="rgb(92.041016%, 96.972656%, 99.102783%)" stop-opacity="1"/>
<stop offset="0.351562" stop-color="rgb(91.827393%, 96.891785%, 99.078369%)" stop-opacity="1"/>
<stop offset="0.359375" stop-color="rgb(91.615295%, 96.810913%, 99.053955%)" stop-opacity="1"/>
<stop offset="0.367188" stop-color="rgb(91.400146%, 96.728516%, 99.029541%)" stop-opacity="1"/>
<stop offset="0.375" stop-color="rgb(91.184998%, 96.647644%, 99.006653%)" stop-opacity="1"/>
<stop offset="0.382812" stop-color="rgb(90.969849%, 96.565247%, 98.982239%)" stop-opacity="1"/>
<stop offset="0.390625" stop-color="rgb(90.753174%, 96.482849%, 98.957825%)" stop-opacity="1"/>
<stop offset="0.398438" stop-color="rgb(90.536499%, 96.400452%, 98.933411%)" stop-opacity="1"/>
<stop offset="0.40625" stop-color="rgb(90.318298%, 96.318054%, 98.908997%)" stop-opacity="1"/>
<stop offset="0.414062" stop-color="rgb(90.100098%, 96.234131%, 98.883057%)" stop-opacity="1"/>
<stop offset="0.421875" stop-color="rgb(89.881897%, 96.151733%, 98.858643%)" stop-opacity="1"/>
<stop offset="0.429688" stop-color="rgb(89.660645%, 96.06781%, 98.834229%)" stop-opacity="1"/>
<stop offset="0.4375" stop-color="rgb(89.440918%, 95.983887%, 98.809814%)" stop-opacity="1"/>
<stop offset="0.445312" stop-color="rgb(89.219666%, 95.899963%, 98.783875%)" stop-opacity="1"/>
<stop offset="0.453125" stop-color="rgb(88.998413%, 95.81604%, 98.75946%)" stop-opacity="1"/>
<stop offset="0.460938" stop-color="rgb(88.775635%, 95.730591%, 98.735046%)" stop-opacity="1"/>
<stop offset="0.46875" stop-color="rgb(88.552856%, 95.646667%, 98.709106%)" stop-opacity="1"/>
<stop offset="0.476562" stop-color="rgb(88.328552%, 95.561218%, 98.683167%)" stop-opacity="1"/>
<stop offset="0.484375" stop-color="rgb(88.104248%, 95.475769%, 98.658752%)" stop-opacity="1"/>
<stop offset="0.492188" stop-color="rgb(87.879944%, 95.39032%, 98.632812%)" stop-opacity="1"/>
<stop offset="0.5" stop-color="rgb(87.65564%, 95.304871%, 98.608398%)" stop-opacity="1"/>
<stop offset="0.507812" stop-color="rgb(87.42981%, 95.219421%, 98.582458%)" stop-opacity="1"/>
<stop offset="0.515625" stop-color="rgb(87.202454%, 95.132446%, 98.556519%)" stop-opacity="1"/>
<stop offset="0.523438" stop-color="rgb(86.975098%, 95.046997%, 98.530579%)" stop-opacity="1"/>
<stop offset="0.53125" stop-color="rgb(86.747742%, 94.960022%, 98.506165%)" stop-opacity="1"/>
<stop offset="0.539062" stop-color="rgb(86.520386%, 94.873047%, 98.480225%)" stop-opacity="1"/>
<stop offset="0.546875" stop-color="rgb(86.291504%, 94.786072%, 98.454285%)" stop-opacity="1"/>
<stop offset="0.554688" stop-color="rgb(86.062622%, 94.699097%, 98.428345%)" stop-opacity="1"/>
<stop offset="0.5625" stop-color="rgb(85.832214%, 94.612122%, 98.402405%)" stop-opacity="1"/>
<stop offset="0.570312" stop-color="rgb(85.601807%, 94.523621%, 98.376465%)" stop-opacity="1"/>
<stop offset="0.578125" stop-color="rgb(85.371399%, 94.436646%, 98.350525%)" stop-opacity="1"/>
<stop offset="0.585938" stop-color="rgb(85.140991%, 94.348145%, 98.324585%)" stop-opacity="1"/>
<stop offset="0.59375" stop-color="rgb(84.909058%, 94.261169%, 98.298645%)" stop-opacity="1"/>
<stop offset="0.601562" stop-color="rgb(84.677124%, 94.172668%, 98.272705%)" stop-opacity="1"/>
<stop offset="0.609375" stop-color="rgb(84.443665%, 94.084167%, 98.245239%)" stop-opacity="1"/>
<stop offset="0.617188" stop-color="rgb(84.210205%, 93.995667%, 98.219299%)" stop-opacity="1"/>
<stop offset="0.625" stop-color="rgb(83.976746%, 93.907166%, 98.193359%)" stop-opacity="1"/>
<stop offset="0.632812" stop-color="rgb(83.743286%, 93.817139%, 98.167419%)" stop-opacity="1"/>
<stop offset="0.640625" stop-color="rgb(83.509827%, 93.728638%, 98.139954%)" stop-opacity="1"/>
<stop offset="0.648438" stop-color="rgb(83.274841%, 93.638611%, 98.114014%)" stop-opacity="1"/>
<stop offset="0.65625" stop-color="rgb(83.03833%, 93.548584%, 98.088074%)" stop-opacity="1"/>
<stop offset="0.664062" stop-color="rgb(82.801819%, 93.458557%, 98.060608%)" stop-opacity="1"/>
<stop offset="0.671875" stop-color="rgb(82.565308%, 93.36853%, 98.034668%)" stop-opacity="1"/>
<stop offset="0.679688" stop-color="rgb(82.328796%, 93.278503%, 98.007202%)" stop-opacity="1"/>
<stop offset="0.6875" stop-color="rgb(82.092285%, 93.188477%, 97.981262%)" stop-opacity="1"/>
<stop offset="0.695312" stop-color="rgb(81.854248%, 93.09845%, 97.953796%)" stop-opacity="1"/>
<stop offset="0.703125" stop-color="rgb(81.616211%, 93.008423%, 97.927856%)" stop-opacity="1"/>
<stop offset="0.710938" stop-color="rgb(81.378174%, 92.91687%, 97.900391%)" stop-opacity="1"/>
<stop offset="0.71875" stop-color="rgb(81.138611%, 92.826843%, 97.874451%)" stop-opacity="1"/>
<stop offset="0.726562" stop-color="rgb(80.899048%, 92.735291%, 97.846985%)" stop-opacity="1"/>
<stop offset="0.734375" stop-color="rgb(80.659485%, 92.645264%, 97.819519%)" stop-opacity="1"/>
<stop offset="0.742188" stop-color="rgb(80.419922%, 92.553711%, 97.793579%)" stop-opacity="1"/>
<stop offset="0.75" stop-color="rgb(80.178833%, 92.462158%, 97.766113%)" stop-opacity="1"/>
<stop offset="0.757812" stop-color="rgb(79.937744%, 92.370605%, 97.738647%)" stop-opacity="1"/>
<stop offset="0.765625" stop-color="rgb(79.696655%, 92.279053%, 97.711182%)" stop-opacity="1"/>
<stop offset="0.773438" stop-color="rgb(79.454041%, 92.185974%, 97.683716%)" stop-opacity="1"/>
<stop offset="0.78125" stop-color="rgb(79.211426%, 92.094421%, 97.65625%)" stop-opacity="1"/>
<stop offset="0.789062" stop-color="rgb(78.968811%, 92.001343%, 97.63031%)" stop-opacity="1"/>
<stop offset="0.796875" stop-color="rgb(78.726196%, 91.90979%, 97.602844%)" stop-opacity="1"/>
<stop offset="0.804688" stop-color="rgb(78.483582%, 91.816711%, 97.575378%)" stop-opacity="1"/>
<stop offset="0.8125" stop-color="rgb(78.239441%, 91.723633%, 97.547913%)" stop-opacity="1"/>
<stop offset="0.820312" stop-color="rgb(77.9953%, 91.630554%, 97.520447%)" stop-opacity="1"/>
<stop offset="0.828125" stop-color="rgb(77.75116%, 91.537476%, 97.492981%)" stop-opacity="1"/>
<stop offset="0.835938" stop-color="rgb(77.505493%, 91.444397%, 97.463989%)" stop-opacity="1"/>
<stop offset="0.84375" stop-color="rgb(77.259827%, 91.351318%, 97.436523%)" stop-opacity="1"/>
<stop offset="0.851562" stop-color="rgb(77.01416%, 91.25824%, 97.409058%)" stop-opacity="1"/>
<stop offset="0.859375" stop-color="rgb(76.768494%, 91.165161%, 97.381592%)" stop-opacity="1"/>
<stop offset="0.867188" stop-color="rgb(76.522827%, 91.070557%, 97.354126%)" stop-opacity="1"/>
<stop offset="0.875" stop-color="rgb(76.275635%, 90.977478%, 97.32666%)" stop-opacity="1"/>
<stop offset="0.882812" stop-color="rgb(76.028442%, 90.882874%, 97.297668%)" stop-opacity="1"/>
<stop offset="0.890625" stop-color="rgb(75.78125%, 90.789795%, 97.270203%)" stop-opacity="1"/>
<stop offset="0.898438" stop-color="rgb(75.534058%, 90.69519%, 97.242737%)" stop-opacity="1"/>
<stop offset="0.90625" stop-color="rgb(75.285339%, 90.600586%, 97.213745%)" stop-opacity="1"/>
<stop offset="0.914062" stop-color="rgb(75.036621%, 90.505981%, 97.186279%)" stop-opacity="1"/>
<stop offset="0.921875" stop-color="rgb(74.787903%, 90.411377%, 97.158813%)" stop-opacity="1"/>
<stop offset="0.929688" stop-color="rgb(74.539185%, 90.316772%, 97.129822%)" stop-opacity="1"/>
<stop offset="0.9375" stop-color="rgb(74.28894%, 90.222168%, 97.102356%)" stop-opacity="1"/>
<stop offset="0.945312" stop-color="rgb(74.040222%, 90.127563%, 97.073364%)" stop-opacity="1"/>
<stop offset="0.953125" stop-color="rgb(73.789978%, 90.031433%, 97.045898%)" stop-opacity="1"/>
<stop offset="0.960938" stop-color="rgb(73.539734%, 89.936829%, 97.016907%)" stop-opacity="1"/>
<stop offset="0.96875" stop-color="rgb(73.287964%, 89.840698%, 96.989441%)" stop-opacity="1"/>
<stop offset="0.976562" stop-color="rgb(73.03772%, 89.746094%, 96.960449%)" stop-opacity="1"/>
<stop offset="0.984375" stop-color="rgb(72.78595%, 89.649963%, 96.932983%)" stop-opacity="1"/>
<stop offset="0.992188" stop-color="rgb(72.53418%, 89.553833%, 96.903992%)" stop-opacity="1"/>
<stop offset="1" stop-color="rgb(72.28241%, 89.457703%, 96.875%)" stop-opacity="1"/>
</linearGradient>
<clipPath id="clip-2">
<path clip-rule="nonzero" d="M 172 295 L 1911 295 L 1911 1603 L 172 1603 Z M 172 295 "/>
</clipPath>
<clipPath id="clip-3">
<path clip-rule="nonzero" d="M 1767.699219 1602.089844 L 1454.351562 1602.089844 C 1455.710938 1598.488281 1456.628906 1594.71875 1457.078125 1590.851562 C 1469.75 1583.03125 1476.851562 1574.980469 1475.011719 1568.960938 C 1473.339844 1563.488281 1464.578125 1560.738281 1451.808594 1560.738281 C 1451.320312 1560.738281 1450.820312 1560.75 1450.320312 1560.761719 C 1441.761719 1546.949219 1426.570312 1538.539062 1410.410156 1538.539062 C 1405.859375 1538.539062 1401.238281 1539.210938 1396.671875 1540.601562 C 1396.621094 1540.621094 1396.578125 1540.628906 1396.53125 1540.648438 L 1396.519531 1540.648438 C 1396.46875 1540.660156 1396.429688 1540.679688 1396.378906 1540.691406 C 1396.378906 1540.691406 1396.378906 1540.691406 1396.371094 1540.699219 C 1396.230469 1540.738281 1396.089844 1540.78125 1395.949219 1540.828125 L 1395.941406 1540.828125 C 1395.898438 1540.851562 1395.851562 1540.859375 1395.808594 1540.878906 C 1395.800781 1540.878906 1395.800781 1540.878906 1395.789062 1540.878906 C 1395.75 1540.898438 1395.699219 1540.910156 1395.660156 1540.929688 C 1395.648438 1540.929688 1395.648438 1540.929688 1395.648438 1540.929688 C 1395.609375 1540.941406 1395.570312 1540.949219 1395.53125 1540.96875 C 1395.519531 1540.96875 1395.511719 1540.96875 1395.5 1540.980469 C 1395.46875 1540.988281 1395.429688 1541 1395.398438 1541.011719 C 1395.378906 1541.019531 1395.359375 1541.03125 1395.339844 1541.03125 C 1395.320312 1541.039062 1395.300781 1541.050781 1395.28125 1541.050781 C 1395.238281 1541.058594 1395.210938 1541.078125 1395.171875 1541.089844 C 1395.160156 1541.089844 1395.160156 1541.089844 1395.148438 1541.101562 C 1375.191406 1547.929688 1362.660156 1567.011719 1363.429688 1587.289062 C 1355.601562 1592.390625 1350.199219 1597.53125 1348.160156 1602.089844 L 428.171875 1602.089844 C 287.15625 1602.089844 172.839844 1493.011719 172.839844 1358.441406 C 172.839844 1223.878906 287.15625 1114.800781 428.171875 1114.800781 L 875.167969 1114.800781 C 824.507812 1114.800781 783.441406 1075.609375 783.441406 1027.261719 C 783.441406 978.921875 824.507812 939.730469 875.167969 939.730469 L 437.652344 939.730469 C 442.570312 928.199219 445.847656 915.949219 447.289062 903.328125 C 482.53125 881.589844 502.269531 859.179688 497.160156 842.449219 C 492.511719 827.21875 468.164062 819.601562 432.640625 819.601562 C 431.273438 819.601562 429.882812 819.609375 428.484375 819.640625 C 404.695312 781.25 362.445312 757.859375 317.492188 757.859375 C 306.632812 757.859375 295.613281 759.230469 284.660156 762.070312 C 282.867188 762.539062 281.078125 763.039062 279.289062 763.589844 C 279.21875 763.609375 279.140625 763.640625 279.070312 763.660156 C 279.046875 763.660156 279.023438 763.671875 279.003906 763.679688 C 278.949219 763.691406 278.894531 763.710938 278.84375 763.730469 C 278.820312 763.730469 278.796875 763.738281 278.773438 763.75 C 278.726562 763.761719 278.667969 763.78125 278.617188 763.800781 C 278.59375 763.808594 278.574219 763.808594 278.554688 763.820312 C 278.492188 763.839844 278.433594 763.859375 278.375 763.871094 C 278.363281 763.878906 278.351562 763.878906 278.339844 763.890625 C 239.660156 776.011719 210.574219 804.511719 196.386719 839.410156 C 181.363281 812.691406 172.839844 782.140625 172.839844 749.691406 C 172.839844 644.738281 262.003906 559.660156 371.988281 559.660156 L 413.53125 559.660156 C 394.097656 543.609375 381.789062 519.910156 381.789062 493.46875 C 381.789062 445.121094 422.859375 405.929688 473.519531 405.929688 L 611.777344 405.929688 C 597.796875 394.449219 588.90625 377.46875 588.90625 358.480469 C 588.90625 323.890625 618.292969 295.851562 654.542969 295.851562 L 1001.710938 295.851562 C 1037.960938 295.851562 1067.351562 323.890625 1067.351562 358.480469 C 1067.351562 393.070312 1037.960938 421.109375 1001.710938 421.109375 L 871.722656 421.109375 C 847.515625 436.871094 831.621094 463.390625 831.621094 493.46875 C 831.621094 519.910156 843.933594 543.609375 863.363281 559.660156 L 1077.148438 559.660156 C 1187.140625 559.660156 1276.300781 644.738281 1276.300781 749.691406 C 1276.300781 854.648438 1187.140625 939.730469 1077.148438 939.730469 L 1360.371094 939.730469 C 1411.03125 939.730469 1452.101562 978.921875 1452.101562 1027.261719 C 1452.101562 1075.609375 1411.03125 1114.800781 1360.371094 1114.800781 L 1475.769531 1114.800781 C 1601.851562 1114.800781 1706.511719 1202.019531 1727.289062 1316.671875 L 1767.699219 1316.671875 C 1846.308594 1316.671875 1910.039062 1377.480469 1910.039062 1452.5 L 1910.039062 1466.261719 C 1910.039062 1541.28125 1846.308594 1602.089844 1767.699219 1602.089844 M 1366.429688 1602.089844 L 1357.429688 1602.089844 C 1356.988281 1599.121094 1359.339844 1595.511719 1363.808594 1591.699219 C 1364.148438 1594.21875 1364.691406 1596.738281 1365.460938 1599.261719 C 1365.761719 1600.21875 1366.078125 1601.160156 1366.429688 1602.089844 M 1457.269531 1582.300781 C 1457.019531 1578.820312 1456.378906 1575.300781 1455.320312 1571.808594 C 1454.488281 1569.109375 1453.441406 1566.53125 1452.199219 1564.089844 C 1459.339844 1564.671875 1464.039062 1566.609375 1465.058594 1569.949219 C 1466.109375 1573.371094 1463.140625 1577.730469 1457.269531 1582.300781 M 447.816406 879.558594 C 447.140625 869.859375 445.363281 860.078125 442.398438 850.378906 C 440.101562 842.859375 437.183594 835.691406 433.722656 828.921875 C 453.589844 830.511719 466.664062 835.910156 469.5 845.199219 C 472.402344 854.710938 464.140625 866.828125 447.816406 879.558594 "/>
</clipPath>
<clipPath id="clip-4">
<path clip-rule="nonzero" d="M 1767.699219 1602.089844 L 1454.351562 1602.089844 C 1455.710938 1598.488281 1456.628906 1594.71875 1457.078125 1590.851562 C 1469.75 1583.03125 1476.851562 1574.980469 1475.011719 1568.960938 C 1473.339844 1563.488281 1464.578125 1560.738281 1451.808594 1560.738281 C 1451.320312 1560.738281 1450.820312 1560.75 1450.320312 1560.761719 C 1441.761719 1546.949219 1426.570312 1538.539062 1410.410156 1538.539062 C 1405.859375 1538.539062 1401.238281 1539.210938 1396.671875 1540.601562 C 1396.621094 1540.621094 1396.578125 1540.628906 1396.53125 1540.648438 L 1396.519531 1540.648438 C 1396.46875 1540.660156 1396.429688 1540.679688 1396.378906 1540.691406 C 1396.378906 1540.691406 1396.378906 1540.691406 1396.371094 1540.699219 C 1396.230469 1540.738281 1396.089844 1540.78125 1395.949219 1540.828125 L 1395.941406 1540.828125 C 1395.898438 1540.851562 1395.851562 1540.859375 1395.808594 1540.878906 C 1395.800781 1540.878906 1395.800781 1540.878906 1395.789062 1540.878906 C 1395.75 1540.898438 1395.699219 1540.910156 1395.660156 1540.929688 C 1395.648438 1540.929688 1395.648438 1540.929688 1395.648438 1540.929688 C 1395.609375 1540.941406 1395.570312 1540.949219 1395.53125 1540.96875 C 1395.519531 1540.96875 1395.511719 1540.96875 1395.5 1540.980469 C 1395.46875 1540.988281 1395.429688 1541 1395.398438 1541.011719 C 1395.378906 1541.019531 1395.359375 1541.03125 1395.339844 1541.03125 C 1395.320312 1541.039062 1395.300781 1541.050781 1395.28125 1541.050781 C 1395.238281 1541.058594 1395.210938 1541.078125 1395.171875 1541.089844 C 1395.160156 1541.089844 1395.160156 1541.089844 1395.148438 1541.101562 C 1375.191406 1547.929688 1362.660156 1567.011719 1363.429688 1587.289062 C 1355.601562 1592.390625 1350.199219 1597.53125 1348.160156 1602.089844 L 428.171875 1602.089844 C 287.15625 1602.089844 172.839844 1493.011719 172.839844 1358.441406 C 172.839844 1223.878906 287.15625 1114.800781 428.171875 1114.800781 L 875.167969 1114.800781 C 824.507812 1114.800781 783.441406 1075.609375 783.441406 1027.261719 C 783.441406 978.921875 824.507812 939.730469 875.167969 939.730469 L 437.652344 939.730469 C 442.570312 928.199219 445.847656 915.949219 447.289062 903.328125 C 482.53125 881.589844 502.269531 859.179688 497.160156 842.449219 C 492.511719 827.21875 468.164062 819.601562 432.640625 819.601562 C 431.273438 819.601562 429.882812 819.609375 428.484375 819.640625 C 404.695312 781.25 362.445312 757.859375 317.492188 757.859375 C 306.632812 757.859375 295.613281 759.230469 284.660156 762.070312 C 282.867188 762.539062 281.078125 763.039062 279.289062 763.589844 C 279.21875 763.609375 279.140625 763.640625 279.070312 763.660156 C 279.046875 763.660156 279.023438 763.671875 279.003906 763.679688 C 278.949219 763.691406 278.894531 763.710938 278.84375 763.730469 C 278.820312 763.730469 278.796875 763.738281 278.773438 763.75 C 278.726562 763.761719 278.667969 763.78125 278.617188 763.800781 C 278.59375 763.808594 278.574219 763.808594 278.554688 763.820312 C 278.492188 763.839844 278.433594 763.859375 278.375 763.871094 C 278.363281 763.878906 278.351562 763.878906 278.339844 763.890625 C 239.660156 776.011719 210.574219 804.511719 196.386719 839.410156 C 181.363281 812.691406 172.839844 782.140625 172.839844 749.691406 C 172.839844 644.738281 262.003906 559.660156 371.988281 559.660156 L 413.53125 559.660156 C 394.097656 543.609375 381.789062 519.910156 381.789062 493.46875 C 381.789062 445.121094 422.859375 405.929688 473.519531 405.929688 L 611.777344 405.929688 C 597.796875 394.449219 588.90625 377.46875 588.90625 358.480469 C 588.90625 323.890625 618.292969 295.851562 654.542969 295.851562 L 1001.710938 295.851562 C 1037.960938 295.851562 1067.351562 323.890625 1067.351562 358.480469 C 1067.351562 393.070312 1037.960938 421.109375 1001.710938 421.109375 L 871.722656 421.109375 C 847.515625 436.871094 831.621094 463.390625 831.621094 493.46875 C 831.621094 519.910156 843.933594 543.609375 863.363281 559.660156 L 1077.148438 559.660156 C 1187.140625 559.660156 1276.300781 644.738281 1276.300781 749.691406 C 1276.300781 854.648438 1187.140625 939.730469 1077.148438 939.730469 L 1360.371094 939.730469 C 1411.03125 939.730469 1452.101562 978.921875 1452.101562 1027.261719 C 1452.101562 1075.609375 1411.03125 1114.800781 1360.371094 1114.800781 L 1475.769531 1114.800781 C 1601.851562 1114.800781 1706.511719 1202.019531 1727.289062 1316.671875 L 1767.699219 1316.671875 C 1846.308594 1316.671875 1910.039062 1377.480469 1910.039062 1452.5 L 1910.039062 1466.261719 C 1910.039062 1541.28125 1846.308594 1602.089844 1767.699219 1602.089844 M 1366.429688 1602.089844 L 1357.429688 1602.089844 C 1356.988281 1599.121094 1359.339844 1595.511719 1363.808594 1591.699219 C 1364.148438 1594.21875 1364.691406 1596.738281 1365.460938 1599.261719 C 1365.761719 1600.21875 1366.078125 1601.160156 1366.429688 1602.089844 M 1457.269531 1582.300781 C 1457.019531 1578.820312 1456.378906 1575.300781 1455.320312 1571.808594 C 1454.488281 1569.109375 1453.441406 1566.53125 1452.199219 1564.089844 C 1459.339844 1564.671875 1464.039062 1566.609375 1465.058594 1569.949219 C 1466.109375 1573.371094 1463.140625 1577.730469 1457.269531 1582.300781 M 447.816406 879.558594 C 447.140625 869.859375 445.363281 860.078125 442.398438 850.378906 C 440.101562 842.859375 437.183594 835.691406 433.722656 828.921875 C 453.589844 830.511719 466.664062 835.910156 469.5 845.199219 C 472.402344 854.710938 464.140625 866.828125 447.816406 879.558594 "/>
</clipPath>
<linearGradient id="linear-pattern-1" gradientUnits="userSpaceOnUse" x1="0.147925" y1="0" x2="0.801045" y2="0" gradientTransform="matrix(0, 2000, -2000, 0, 1000, 0.000000000000222045)">
<stop offset="0" stop-color="rgb(82.077026%, 93.170166%, 98.652649%)" stop-opacity="1"/>
<stop offset="0.03125" stop-color="rgb(81.959534%, 93.12439%, 98.63739%)" stop-opacity="1"/>
<stop offset="0.0625" stop-color="rgb(81.721497%, 93.034363%, 98.609924%)" stop-opacity="1"/>
<stop offset="0.09375" stop-color="rgb(81.480408%, 92.941284%, 98.580933%)" stop-opacity="1"/>
<stop offset="0.125" stop-color="rgb(81.234741%, 92.848206%, 98.551941%)" stop-opacity="1"/>
<stop offset="0.15625" stop-color="rgb(80.986023%, 92.752075%, 98.522949%)" stop-opacity="1"/>
<stop offset="0.1875" stop-color="rgb(80.732727%, 92.655945%, 98.493958%)" stop-opacity="1"/>
<stop offset="0.21875" stop-color="rgb(80.476379%, 92.556763%, 98.46344%)" stop-opacity="1"/>
<stop offset="0.25" stop-color="rgb(80.21698%, 92.457581%, 98.432922%)" stop-opacity="1"/>
<stop offset="0.28125" stop-color="rgb(79.956055%, 92.358398%, 98.402405%)" stop-opacity="1"/>
<stop offset="0.3125" stop-color="rgb(79.692078%, 92.25769%, 98.370361%)" stop-opacity="1"/>
<stop offset="0.34375" stop-color="rgb(79.425049%, 92.155457%, 98.339844%)" stop-opacity="1"/>
<stop offset="0.375" stop-color="rgb(79.154968%, 92.051697%, 98.3078%)" stop-opacity="1"/>
<stop offset="0.40625" stop-color="rgb(78.883362%, 91.947937%, 98.275757%)" stop-opacity="1"/>
<stop offset="0.4375" stop-color="rgb(78.608704%, 91.842651%, 98.243713%)" stop-opacity="1"/>
<stop offset="0.46875" stop-color="rgb(78.33252%, 91.737366%, 98.21167%)" stop-opacity="1"/>
<stop offset="0.5" stop-color="rgb(78.05481%, 91.63208%, 98.178101%)" stop-opacity="1"/>
<stop offset="0.53125" stop-color="rgb(77.774048%, 91.523743%, 98.146057%)" stop-opacity="1"/>
<stop offset="0.5625" stop-color="rgb(77.49176%, 91.415405%, 98.112488%)" stop-opacity="1"/>
<stop offset="0.59375" stop-color="rgb(77.207947%, 91.307068%, 98.078918%)" stop-opacity="1"/>
<stop offset="0.625" stop-color="rgb(76.922607%, 91.19873%, 98.045349%)" stop-opacity="1"/>
<stop offset="0.65625" stop-color="rgb(76.634216%, 91.088867%, 98.01178%)" stop-opacity="1"/>
<stop offset="0.6875" stop-color="rgb(76.345825%, 90.977478%, 97.97821%)" stop-opacity="1"/>
<stop offset="0.71875" stop-color="rgb(76.054382%, 90.866089%, 97.943115%)" stop-opacity="1"/>
<stop offset="0.75" stop-color="rgb(75.762939%, 90.7547%, 97.90802%)" stop-opacity="1"/>
<stop offset="0.78125" stop-color="rgb(75.468445%, 90.643311%, 97.874451%)" stop-opacity="1"/>
<stop offset="0.8125" stop-color="rgb(75.17395%, 90.530396%, 97.839355%)" stop-opacity="1"/>
<stop offset="0.84375" stop-color="rgb(74.876404%, 90.415955%, 97.80426%)" stop-opacity="1"/>
<stop offset="0.875" stop-color="rgb(74.578857%, 90.30304%, 97.769165%)" stop-opacity="1"/>
<stop offset="0.90625" stop-color="rgb(74.279785%, 90.188599%, 97.73407%)" stop-opacity="1"/>
<stop offset="0.9375" stop-color="rgb(73.979187%, 90.072632%, 97.698975%)" stop-opacity="1"/>
<stop offset="0.96875" stop-color="rgb(73.677063%, 89.958191%, 97.663879%)" stop-opacity="1"/>
<stop offset="1" stop-color="rgb(73.373413%, 89.842224%, 97.627258%)" stop-opacity="1"/>
</linearGradient>
<clipPath id="clip-5">
<path clip-rule="nonzero" d="M 1224 290 L 1361 290 L 1361 427 L 1224 427 Z M 1224 290 "/>
</clipPath>
<clipPath id="clip-6">
<path clip-rule="nonzero" d="M 1292.449219 426.140625 C 1254.859375 426.140625 1224.390625 395.851562 1224.390625 358.480469 C 1224.390625 321.121094 1254.859375 290.828125 1292.449219 290.828125 C 1330.03125 290.828125 1360.5 321.121094 1360.5 358.480469 C 1360.5 395.851562 1330.03125 426.140625 1292.449219 426.140625 "/>
</clipPath>
<clipPath id="clip-7">
<path clip-rule="nonzero" d="M 1292.449219 426.140625 C 1254.859375 426.140625 1224.390625 395.851562 1224.390625 358.480469 C 1224.390625 321.121094 1254.859375 290.828125 1292.449219 290.828125 C 1330.03125 290.828125 1360.5 321.121094 1360.5 358.480469 C 1360.5 395.851562 1330.03125 426.140625 1292.449219 426.140625 "/>
</clipPath>
<linearGradient id="linear-pattern-2" gradientUnits="userSpaceOnUse" x1="0.145415" y1="0" x2="0.21307" y2="0" gradientTransform="matrix(0, 2000, -2000, 0, 1000, 0.000000000000222045)">
<stop offset="0" stop-color="rgb(82.106018%, 93.180847%, 98.655701%)" stop-opacity="1"/>
<stop offset="0.5" stop-color="rgb(81.910706%, 93.106079%, 98.632812%)" stop-opacity="1"/>
<stop offset="0.75" stop-color="rgb(81.614685%, 92.993164%, 98.597717%)" stop-opacity="1"/>
<stop offset="1" stop-color="rgb(81.411743%, 92.915344%, 98.573303%)" stop-opacity="1"/>
</linearGradient>
<clipPath id="clip-8">
<path clip-rule="nonzero" d="M 278 762 L 285 762 L 285 764 L 278 764 Z M 278 762 "/>
</clipPath>
<clipPath id="clip-9">
<path clip-rule="nonzero" d="M 278.339844 763.890625 C 278.351562 763.878906 278.363281 763.878906 278.375 763.871094 C 278.363281 763.878906 278.351562 763.878906 278.339844 763.890625 M 278.554688 763.820312 C 278.574219 763.808594 278.59375 763.808594 278.617188 763.800781 C 278.597656 763.808594 278.574219 763.808594 278.554688 763.820312 M 278.773438 763.75 C 278.796875 763.738281 278.820312 763.730469 278.84375 763.730469 C 278.820312 763.730469 278.800781 763.738281 278.773438 763.75 M 279.003906 763.679688 C 279.023438 763.671875 279.046875 763.660156 279.070312 763.660156 C 279.042969 763.671875 279.027344 763.671875 279.003906 763.679688 M 279.289062 763.589844 C 281.078125 763.039062 282.867188 762.539062 284.660156 762.070312 C 282.867188 762.539062 281.078125 763.039062 279.289062 763.589844 "/>
</clipPath>
<clipPath id="clip-10">
<path clip-rule="nonzero" d="M 278.339844 763.890625 C 278.351562 763.878906 278.363281 763.878906 278.375 763.871094 C 278.363281 763.878906 278.351562 763.878906 278.339844 763.890625 M 278.554688 763.820312 C 278.574219 763.808594 278.59375 763.808594 278.617188 763.800781 C 278.597656 763.808594 278.574219 763.808594 278.554688 763.820312 M 278.773438 763.75 C 278.796875 763.738281 278.820312 763.730469 278.84375 763.730469 C 278.820312 763.730469 278.800781 763.738281 278.773438 763.75 M 279.003906 763.679688 C 279.023438 763.671875 279.046875 763.660156 279.070312 763.660156 C 279.042969 763.671875 279.027344 763.671875 279.003906 763.679688 M 279.289062 763.589844 C 281.078125 763.039062 282.867188 762.539062 284.660156 762.070312 C 282.867188 762.539062 281.078125 763.039062 279.289062 763.589844 "/>
</clipPath>
<linearGradient id="linear-pattern-3" gradientUnits="userSpaceOnUse" x1="0.381035" y1="0" x2="0.381945" y2="0" gradientTransform="matrix(0, 2000, -2000, 0, 1000, 0.000000000000222045)">
<stop offset="0" stop-color="rgb(85.946655%, 94.534302%, 98.831177%)" stop-opacity="1"/>
<stop offset="0.5" stop-color="rgb(85.943604%, 94.532776%, 98.829651%)" stop-opacity="1"/>
<stop offset="1" stop-color="rgb(85.940552%, 94.529724%, 98.829651%)" stop-opacity="1"/>
</linearGradient>
<clipPath id="clip-11">
<path clip-rule="nonzero" d="M 1395 1540 L 1397 1540 L 1397 1542 L 1395 1542 Z M 1395 1540 "/>
</clipPath>
<clipPath id="clip-12">
<path clip-rule="nonzero" d="M 1395.148438 1541.101562 C 1395.160156 1541.089844 1395.160156 1541.089844 1395.171875 1541.089844 C 1395.160156 1541.089844 1395.160156 1541.089844 1395.148438 1541.101562 M 1395.28125 1541.050781 C 1395.300781 1541.050781 1395.320312 1541.039062 1395.339844 1541.03125 C 1395.320312 1541.039062 1395.300781 1541.050781 1395.28125 1541.050781 M 1395.398438 1541.011719 C 1395.429688 1541 1395.46875 1540.988281 1395.5 1540.980469 C 1395.46875 1540.988281 1395.429688 1541 1395.398438 1541.011719 M 1395.53125 1540.96875 C 1395.570312 1540.949219 1395.609375 1540.941406 1395.648438 1540.929688 C 1395.609375 1540.941406 1395.570312 1540.949219 1395.53125 1540.96875 M 1395.660156 1540.929688 C 1395.699219 1540.910156 1395.75 1540.898438 1395.789062 1540.878906 C 1395.75 1540.898438 1395.699219 1540.910156 1395.660156 1540.929688 M 1395.808594 1540.878906 C 1395.851562 1540.859375 1395.898438 1540.851562 1395.941406 1540.828125 C 1395.898438 1540.851562 1395.851562 1540.859375 1395.808594 1540.878906 M 1395.949219 1540.828125 C 1396.089844 1540.78125 1396.230469 1540.738281 1396.371094 1540.699219 C 1396.230469 1540.738281 1396.089844 1540.78125 1395.949219 1540.828125 M 1396.378906 1540.691406 C 1396.429688 1540.679688 1396.46875 1540.660156 1396.519531 1540.648438 C 1396.46875 1540.660156 1396.429688 1540.679688 1396.378906 1540.691406 M 1396.53125 1540.648438 C 1396.578125 1540.628906 1396.621094 1540.621094 1396.671875 1540.601562 C 1396.621094 1540.621094 1396.578125 1540.628906 1396.53125 1540.648438 "/>
</clipPath>
<clipPath id="clip-13">
<path clip-rule="nonzero" d="M 1395.148438 1541.101562 C 1395.160156 1541.089844 1395.160156 1541.089844 1395.171875 1541.089844 C 1395.160156 1541.089844 1395.160156 1541.089844 1395.148438 1541.101562 M 1395.28125 1541.050781 C 1395.300781 1541.050781 1395.320312 1541.039062 1395.339844 1541.03125 C 1395.320312 1541.039062 1395.300781 1541.050781 1395.28125 1541.050781 M 1395.398438 1541.011719 C 1395.429688 1541 1395.46875 1540.988281 1395.5 1540.980469 C 1395.46875 1540.988281 1395.429688 1541 1395.398438 1541.011719 M 1395.53125 1540.96875 C 1395.570312 1540.949219 1395.609375 1540.941406 1395.648438 1540.929688 C 1395.609375 1540.941406 1395.570312 1540.949219 1395.53125 1540.96875 M 1395.660156 1540.929688 C 1395.699219 1540.910156 1395.75 1540.898438 1395.789062 1540.878906 C 1395.75 1540.898438 1395.699219 1540.910156 1395.660156 1540.929688 M 1395.808594 1540.878906 C 1395.851562 1540.859375 1395.898438 1540.851562 1395.941406 1540.828125 C 1395.898438 1540.851562 1395.851562 1540.859375 1395.808594 1540.878906 M 1395.949219 1540.828125 C 1396.089844 1540.78125 1396.230469 1540.738281 1396.371094 1540.699219 C 1396.230469 1540.738281 1396.089844 1540.78125 1395.949219 1540.828125 M 1396.378906 1540.691406 C 1396.429688 1540.679688 1396.46875 1540.660156 1396.519531 1540.648438 C 1396.46875 1540.660156 1396.429688 1540.679688 1396.378906 1540.691406 M 1396.53125 1540.648438 C 1396.578125 1540.628906 1396.621094 1540.621094 1396.671875 1540.601562 C 1396.621094 1540.621094 1396.578125 1540.628906 1396.53125 1540.648438 "/>
</clipPath>
<linearGradient id="linear-pattern-4" gradientUnits="userSpaceOnUse" x1="0.7703" y1="0" x2="0.77055" y2="0" gradientTransform="matrix(0, 2000, -2000, 0, 1000, 0.000000000000222045)">
<stop offset="0" stop-color="rgb(82.066345%, 93.078613%, 98.345947%)" stop-opacity="1"/>
<stop offset="0.5" stop-color="rgb(82.064819%, 93.077087%, 98.345947%)" stop-opacity="1"/>
<stop offset="1" stop-color="rgb(82.063293%, 93.077087%, 98.345947%)" stop-opacity="1"/>
</linearGradient>
</defs>
<g clip-path="url(#clip-0)">
<g clip-path="url(#clip-1)">

</g>
</g>
<g clip-path="url(#clip-2)">
<g clip-path="url(#clip-3)">
<g clip-path="url(#clip-4)">
<path fill-rule="nonzero" fill="url(#linear-pattern-1)" d="M 1910.039062 295.851562 L 172.839844 295.851562 L 172.839844 1602.089844 L 1910.039062 1602.089844 Z M 1910.039062 295.851562 "/>
</g>
</g>
</g>
<g clip-path="url(#clip-5)">
<g clip-path="url(#clip-6)">
<g clip-path="url(#clip-7)">
<path fill-rule="nonzero" fill="url(#linear-pattern-2)" d="M 1360.5 290.828125 L 1224.390625 290.828125 L 1224.390625 426.140625 L 1360.5 426.140625 Z M 1360.5 290.828125 "/>
</g>
</g>
</g>
<path fill-rule="nonzero" fill="rgb(100%, 100%, 100%)" fill-opacity="1" d="M 1711.800781 470.019531 C 1706.78125 469.320312 1699.859375 468.878906 1691.761719 470.019531 C 1682.589844 471.300781 1675.339844 474.109375 1670.449219 476.460938 C 1658.300781 448.269531 1630.421875 429.929688 1599.71875 429.929688 C 1563.300781 429.929688 1533.269531 450.238281 1529 476.460938 L 1504.78125 476.460938 C 1482.640625 476.460938 1464.691406 494.410156 1464.691406 516.550781 C 1464.691406 538.691406 1482.640625 556.640625 1504.78125 556.640625 L 1713.101562 556.640625 C 1734.941406 554.300781 1751.738281 536.898438 1753.191406 516.550781 C 1754.808594 493.660156 1736.640625 472.121094 1711.800781 470.019531 "/>
<path fill-rule="nonzero" fill="rgb(3.921509%, 25.87738%, 60.351562%)" fill-opacity="1" d="M 591.308594 1330.578125 L 591.308594 1194.890625 C 591.308594 1158.128906 593.191406 1120.429688 596.015625 1080.839844 L 592.242188 1080.839844 C 572.457031 1120.429688 556.433594 1156.238281 535.703125 1194.890625 L 453.714844 1328.691406 L 453.714844 1330.578125 Z M 591.308594 1584.078125 L 591.308594 1438 L 319.902344 1438 L 319.902344 1344.71875 L 551.726562 971.539062 L 727.011719 971.539062 L 727.011719 1330.578125 L 800.511719 1330.578125 L 800.511719 1438 L 727.011719 1438 L 727.011719 1584.078125 L 591.308594 1584.078125 "/>
<path fill-rule="nonzero" fill="rgb(3.921509%, 25.87738%, 60.351562%)" fill-opacity="1" d="M 995.492188 1278.761719 C 994.546875 1419.160156 1028.480469 1486.070312 1084.078125 1486.070312 C 1139.679688 1486.070312 1169.828125 1416.339844 1169.828125 1276.859375 C 1169.828125 1141.148438 1140.621094 1069.53125 1083.140625 1069.53125 C 1030.371094 1069.53125 994.546875 1136.441406 995.492188 1278.761719 Z M 1313.078125 1274.96875 C 1313.078125 1464.398438 1236.738281 1594.441406 1080.308594 1594.441406 C 921.996094 1594.441406 852.257812 1452.148438 851.3125 1278.761719 C 851.3125 1101.578125 926.703125 961.160156 1085.019531 961.160156 C 1249 961.160156 1313.078125 1107.230469 1313.078125 1274.96875 "/>
<path fill-rule="nonzero" fill="rgb(3.921509%, 25.87738%, 60.351562%)" fill-opacity="1" d="M 1637.179688 1330.578125 L 1637.179688 1194.890625 C 1637.179688 1158.128906 1639.058594 1120.429688 1641.890625 1080.839844 L 1638.121094 1080.839844 C 1618.328125 1120.429688 1602.300781 1156.238281 1581.570312 1194.890625 L 1499.578125 1328.691406 L 1499.578125 1330.578125 Z M 1637.179688 1584.078125 L 1637.179688 1438 L 1365.769531 1438 L 1365.769531 1344.71875 L 1597.601562 971.539062 L 1772.878906 971.539062 L 1772.878906 1330.578125 L 1846.378906 1330.578125 L 1846.378906 1438 L 1772.878906 1438 L 1772.878906 1584.078125 L 1637.179688 1584.078125 "/>
<path fill-rule="nonzero" fill="rgb(25.488281%, 38.035583%, 84.764099%)" fill-opacity="1" d="M 549.769531 1330.578125 L 549.769531 1194.890625 C 549.769531 1158.128906 551.648438 1120.429688 554.476562 1080.839844 L 550.703125 1080.839844 C 530.917969 1120.429688 514.894531 1156.238281 494.164062 1194.890625 L 412.175781 1328.691406 L 412.175781 1330.578125 Z M 549.769531 1584.078125 L 549.769531 1438 L 278.363281 1438 L 278.363281 1344.71875 L 510.1875 971.539062 L 685.472656 971.539062 L 685.472656 1330.578125 L 758.972656 1330.578125 L 758.972656 1438 L 685.472656 1438 L 685.472656 1584.078125 L 549.769531 1584.078125 "/>
<path fill-rule="nonzero" fill="rgb(25.488281%, 38.035583%, 84.764099%)" fill-opacity="1" d="M 953.953125 1278.761719 C 953.007812 1419.160156 986.9375 1486.070312 1042.539062 1486.070312 C 1098.140625 1486.070312 1128.289062 1416.339844 1128.289062 1276.859375 C 1128.289062 1141.148438 1099.078125 1069.53125 1041.601562 1069.53125 C 988.828125 1069.53125 953.007812 1136.441406 953.953125 1278.761719 Z M 1271.539062 1274.96875 C 1271.539062 1464.398438 1195.199219 1594.441406 1038.769531 1594.441406 C 880.453125 1594.441406 810.71875 1452.148438 809.773438 1278.761719 C 809.773438 1101.578125 885.160156 961.160156 1043.480469 961.160156 C 1207.460938 961.160156 1271.539062 1107.230469 1271.539062 1274.96875 "/>
<path fill-rule="nonzero" fill="rgb(13.330078%, 29.80957%, 66.601562%)" fill-opacity="1" d="M 1038.769531 1594.441406 C 1050.75 1594.441406 1062.191406 1593.589844 1073.230469 1592.089844 C 1061.769531 1567.070312 1031.789062 1506.441406 1031.789062 1506.441406 L 1064.179688 1481.988281 C 1057.460938 1484.671875 1050.25 1486.070312 1042.539062 1486.070312 C 1020.949219 1486.070312 1002.640625 1475.921875 988.355469 1455.351562 L 963.722656 1458.738281 L 932.175781 1567 C 961.871094 1584.570312 997.246094 1594.441406 1038.769531 1594.441406 "/>
<path fill-rule="nonzero" fill="rgb(25.488281%, 38.035583%, 84.764099%)" fill-opacity="1" d="M 1595.640625 1330.578125 L 1595.640625 1194.890625 C 1595.640625 1158.128906 1597.519531 1120.429688 1600.351562 1080.839844 L 1596.578125 1080.839844 C 1576.789062 1120.429688 1560.761719 1156.238281 1540.03125 1194.890625 L 1458.039062 1328.691406 L 1458.039062 1330.578125 Z M 1595.640625 1584.078125 L 1595.640625 1438 L 1324.230469 1438 L 1324.230469 1344.71875 L 1556.058594 971.539062 L 1731.339844 971.539062 L 1731.339844 1330.578125 L 1804.839844 1330.578125 L 1804.839844 1438 L 1731.339844 1438 L 1731.339844 1584.078125 L 1595.640625 1584.078125 "/>
<path fill-rule="nonzero" fill="rgb(20.384216%, 27.050781%, 36.473083%)" fill-opacity="1" d="M 1064.140625 1425.371094 C 1064.140625 1425.371094 1089.21875 1438.871094 1090.601562 1445.679688 L 1062.949219 1436.828125 L 1064.140625 1425.371094 "/>
<path fill-rule="nonzero" fill="rgb(95.701599%, 75.78125%, 79.296875%)" fill-opacity="1" d="M 915.621094 1598.890625 L 914.890625 1608.429688 L 927.480469 1609.390625 L 931.222656 1600.078125 L 915.621094 1598.890625 "/>
<path fill-rule="nonzero" fill="rgb(10.594177%, 9.812927%, 26.268005%)" fill-opacity="1" d="M 931.789062 1603.71875 C 931.789062 1603.71875 930.503906 1620.441406 928.714844 1625.378906 L 874.375 1622.011719 C 874.375 1622.011719 875.378906 1610.691406 895.625 1612.011719 C 898.199219 1612.179688 900.703125 1611.5 902.523438 1610.070312 C 906.667969 1606.820312 911.648438 1601.070312 914.015625 1601.378906 L 931.789062 1603.71875 "/>
<path fill-rule="nonzero" fill="rgb(95.701599%, 75.78125%, 79.296875%)" fill-opacity="1" d="M 1019.101562 1600.679688 L 1019.441406 1610.238281 L 1032.058594 1609.789062 L 1034.730469 1600.121094 L 1019.101562 1600.679688 "/>
<path fill-rule="nonzero" fill="rgb(10.594177%, 9.812927%, 26.268005%)" fill-opacity="1" d="M 1036.210938 1604.410156 C 1036.210938 1604.410156 1036.128906 1621.179688 1034.691406 1626.230469 L 980.25 1626.75 C 980.25 1626.75 980.445312 1615.378906 1000.730469 1615.261719 C 1003.308594 1615.238281 1005.761719 1614.378906 1007.480469 1612.828125 C 1011.378906 1609.289062 1015.941406 1603.199219 1018.320312 1603.351562 L 1036.210938 1604.410156 "/>
<path fill-rule="nonzero" fill="rgb(19.213867%, 26.660156%, 32.151794%)" fill-opacity="1" d="M 1086.378906 1428.898438 C 1086.378906 1428.898438 1101.171875 1459 1079.339844 1473.449219 C 1057.511719 1487.898438 1004.78125 1487.128906 1004.78125 1487.128906 L 1036.960938 1602.238281 L 1014.410156 1601.851562 C 1014.410156 1601.851562 969.882812 1491.828125 963.71875 1492.128906 C 957.558594 1492.421875 933.9375 1600.289062 933.9375 1600.289062 L 908.753906 1598.359375 C 908.753906 1598.359375 927.75 1461.820312 934.714844 1450.75 C 947.890625 1429.808594 1004.261719 1433.738281 1013.769531 1429.871094 C 1023.28125 1425.988281 1086.378906 1428.898438 1086.378906 1428.898438 "/>
<path fill-rule="nonzero" fill="rgb(8.227539%, 18.821716%, 27.830505%)" fill-opacity="1" d="M 990.003906 1462.671875 C 970.5625 1467.511719 963.722656 1492.128906 963.722656 1492.128906 C 964.84375 1492.078125 967.242188 1495.699219 970.40625 1501.628906 C 973.269531 1477.941406 990.003906 1462.671875 990.003906 1462.671875 "/>
<path fill-rule="nonzero" fill="rgb(10.984802%, 9.008789%, 8.227539%)" fill-opacity="1" d="M 1042.46875 1201.761719 C 1042.46875 1201.761719 1052.261719 1196.691406 1059.730469 1216.460938 C 1067.191406 1236.230469 1067.578125 1267.039062 1064.890625 1277.539062 C 1064.890625 1277.539062 1086.558594 1300.871094 1068.851562 1316.121094 C 1068.851562 1316.121094 1044.449219 1341.78125 1042.839844 1348.390625 C 1042.210938 1346.839844 1031.738281 1327.988281 1014.769531 1326.941406 C 997.808594 1325.890625 955.992188 1281.96875 978.292969 1275.140625 C 978.292969 1275.140625 976.628906 1282.238281 984.238281 1280.539062 C 991.851562 1278.828125 987.054688 1252.628906 987.132812 1243.371094 C 987.210938 1234.101562 992.789062 1211.269531 1009.019531 1201.578125 C 1025.238281 1191.898438 1043.921875 1192.570312 1042.46875 1201.761719 "/>
<path fill-rule="nonzero" fill="rgb(92.1875%, 66.209412%, 47.851562%)" fill-opacity="1" d="M 1014.78125 1262.730469 C 1014.78125 1262.730469 1011.269531 1275.789062 1008.96875 1277.53125 C 1008.96875 1277.53125 1006.660156 1283.550781 1013.460938 1300.558594 C 1020.261719 1317.578125 1037.488281 1308.078125 1040.25 1303.429688 C 1043 1298.789062 1049.089844 1289.910156 1043.539062 1281.058594 C 1043.539062 1281.058594 1035.929688 1275.550781 1039.910156 1263.550781 C 1039.910156 1263.550781 1015.980469 1258.730469 1014.78125 1262.730469 "/>
<path fill-rule="nonzero" fill="rgb(99.21875%, 77.34375%, 58.789062%)" fill-opacity="1" d="M 1042.871094 1263.851562 C 1042.871094 1263.851562 1031.339844 1272.800781 1021.921875 1269.351562 C 1012.488281 1265.898438 1004.128906 1256.769531 1001.550781 1247.648438 C 998.96875 1238.519531 1003.160156 1220.210938 1009.5 1213.691406 C 1015.851562 1207.171875 1039.410156 1202.890625 1046.03125 1211.378906 C 1052.648438 1219.871094 1055.21875 1254.101562 1042.871094 1263.851562 "/>
<path fill-rule="nonzero" fill="rgb(96.484375%, 96.484375%, 96.484375%)" fill-opacity="1" d="M 1039.660156 1276.691406 C 1039.660156 1276.691406 1019.039062 1285.71875 1009.058594 1275.421875 C 1009.058594 1275.421875 965.824219 1318.730469 990.363281 1432.328125 C 990.363281 1432.328125 1072.800781 1436.578125 1074.441406 1436.871094 C 1076.070312 1437.148438 1068.519531 1412.230469 1058.878906 1405.320312 C 1049.300781 1398.460938 993.972656 1366.578125 1039.878906 1278.511719 C 1040.191406 1277.910156 1040.140625 1277.570312 1039.660156 1276.691406 "/>
<path fill-rule="nonzero" fill="rgb(86.326599%, 88.671875%, 91.796875%)" fill-opacity="1" d="M 1047.398438 1435.25 C 982.148438 1420.441406 1002.320312 1353.71875 1000.089844 1340.339844 C 998.238281 1329.21875 1016.660156 1292.429688 1022.921875 1280.339844 C 1017.898438 1280.390625 1012.75 1279.230469 1009.050781 1275.421875 C 1009.050781 1275.421875 965.824219 1318.730469 990.363281 1432.328125 C 990.363281 1432.328125 1023.121094 1434.019531 1047.75 1435.339844 C 1047.628906 1435.308594 1047.519531 1435.28125 1047.398438 1435.25 "/>
<path fill-rule="nonzero" fill="rgb(99.609375%, 80.859375%, 27.43988%)" fill-opacity="1" d="M 1040.269531 1276.441406 C 1040.269531 1276.441406 1045.691406 1277 1053.109375 1279.238281 C 1056.101562 1280.148438 1076.28125 1287.519531 1074.898438 1319.601562 C 1073.421875 1354.238281 1070.269531 1383.449219 1075.261719 1395.351562 C 1080.238281 1407.25 1091.609375 1427.03125 1092.21875 1448.371094 C 1066.5 1427.628906 1035.410156 1405.359375 1018.378906 1369.570312 C 994.707031 1319.808594 1040.269531 1276.441406 1040.269531 1276.441406 "/>
<path fill-rule="nonzero" fill="rgb(84.375%, 67.771912%, 22.363281%)" fill-opacity="1" d="M 1058.800781 1281.921875 C 1065.699219 1286.199219 1075.898438 1296.488281 1074.898438 1319.601562 C 1073.421875 1354.238281 1070.269531 1383.449219 1075.261719 1395.351562 C 1080.238281 1407.25 1091.609375 1427.03125 1092.21875 1448.371094 C 1092.21875 1448.371094 1081.089844 1412.761719 1062.949219 1394.128906 C 1062.949219 1394.128906 1077.519531 1319.210938 1058.800781 1281.921875 "/>
<path fill-rule="nonzero" fill="rgb(98.826599%, 77.34375%, 58.789062%)" fill-opacity="1" d="M 1111.039062 1432.25 C 1111.039062 1432.25 1114.320312 1436.359375 1113.5 1438.890625 C 1112.761719 1441.171875 1113.070312 1440.378906 1112.679688 1441.339844 C 1112.550781 1441.671875 1112.339844 1442.339844 1112.339844 1442.339844 C 1112.339844 1442.339844 1110.300781 1448.570312 1111.839844 1449.910156 C 1113.390625 1451.261719 1115.039062 1450.300781 1115.488281 1446.859375 C 1115.929688 1443.410156 1121.550781 1443.101562 1122.289062 1448.601562 C 1123.039062 1454.101562 1125.769531 1460.070312 1127.539062 1458.480469 C 1129.300781 1456.878906 1127.828125 1452.429688 1127.828125 1452.429688 C 1127.828125 1452.429688 1128.078125 1452.339844 1128.378906 1453.5 C 1128.671875 1454.660156 1128.179688 1457.769531 1128.988281 1457.371094 C 1129.800781 1456.96875 1135.210938 1454.71875 1135.03125 1447.210938 C 1134.859375 1439.699219 1130.539062 1436.691406 1128.96875 1435.230469 C 1127.398438 1433.769531 1123.238281 1427.519531 1123.191406 1425.050781 C 1123.191406 1425.050781 1110.570312 1428.039062 1111.039062 1432.25 "/>
<path fill-rule="nonzero" fill="rgb(99.609375%, 80.859375%, 27.43988%)" fill-opacity="1" d="M 1056.910156 1285.351562 C 1056.910156 1285.351562 1048.890625 1309.699219 1061.140625 1331.371094 C 1073.398438 1353.039062 1086.929688 1394.898438 1094.828125 1408 C 1102.738281 1421.101562 1110.910156 1435.539062 1110.910156 1435.539062 L 1126.480469 1430.359375 C 1126.480469 1430.359375 1107.691406 1378.371094 1099.660156 1367.359375 C 1099.660156 1367.359375 1083.210938 1282.03125 1056.910156 1285.351562 "/>
<path fill-rule="nonzero" fill="rgb(61.131287%, 83.984375%, 88.671875%)" fill-opacity="1" d="M 1042.398438 1276.421875 L 1024.109375 1291.539062 L 1021.191406 1280.769531 L 1035.859375 1276.640625 L 1042.398438 1276.421875 "/>
<path fill-rule="nonzero" fill="rgb(61.131287%, 83.984375%, 88.671875%)" fill-opacity="1" d="M 1009.761719 1275.421875 L 1020.488281 1280.339844 L 1010.351562 1292.011719 C 1010.351562 1292.011719 1005.429688 1280.070312 1009.761719 1275.421875 "/>
<path fill-rule="nonzero" fill="rgb(11.767578%, 16.868591%, 35.693359%)" fill-opacity="1" d="M 886.75 1351.679688 L 905.152344 1345.320312 C 906.355469 1344.910156 907.675781 1345.488281 908.175781 1346.660156 L 930.820312 1399.558594 C 931.472656 1401.078125 930.449219 1402.789062 928.800781 1402.941406 L 907.808594 1404.789062 C 906.753906 1404.878906 905.757812 1404.28125 905.351562 1403.300781 L 885.300781 1354.898438 C 884.765625 1353.609375 885.429688 1352.140625 886.75 1351.679688 "/>
<path fill-rule="nonzero" fill="rgb(99.21875%, 77.34375%, 58.789062%)" fill-opacity="1" d="M 900.382812 1363.640625 C 901.589844 1362.53125 903.53125 1363.269531 903.679688 1364.898438 C 903.800781 1366.230469 903.625 1367.871094 902.691406 1369.648438 C 900.394531 1374.03125 900.1875 1379.039062 901.230469 1379.039062 C 902.273438 1379.039062 905.199219 1369.648438 908.75 1370.378906 C 912.300781 1371.109375 904.988281 1382.179688 906.035156 1383.640625 C 907.078125 1385.101562 911.046875 1375.910156 912.925781 1377.578125 C 914.804688 1379.25 908.539062 1388.859375 909.167969 1390.109375 C 909.792969 1391.371094 913.96875 1386.148438 914.386719 1388.03125 C 914.804688 1389.910156 913.785156 1393.671875 907.507812 1397.628906 C 907.507812 1397.628906 898.097656 1404.320312 893.503906 1399.300781 C 889.148438 1394.550781 887.230469 1375.730469 900.382812 1363.640625 "/>
<path fill-rule="nonzero" fill="rgb(84.375%, 67.771912%, 22.363281%)" fill-opacity="1" d="M 944.878906 1363.109375 C 937.777344 1376.628906 920.304688 1374.988281 920.304688 1374.988281 L 928.871094 1395.011719 C 953.796875 1403.660156 969.523438 1382.140625 969.523438 1382.140625 C 985.816406 1366.230469 991.664062 1280.261719 991.664062 1280.261719 C 965.765625 1287.359375 951.980469 1349.601562 944.878906 1363.109375 "/>
<path fill-rule="nonzero" fill="rgb(99.609375%, 80.859375%, 27.43988%)" fill-opacity="1" d="M 975.851562 1310.070312 C 975.851562 1310.070312 977.148438 1301.808594 979.9375 1290.949219 C 980.742188 1287.820312 982.824219 1284.109375 985.714844 1282.320312 C 991.972656 1278.460938 1002.019531 1276.539062 1009.761719 1275.421875 C 1009.761719 1275.421875 988.261719 1357.339844 989.730469 1419.761719 C 990.78125 1425.25 991.234375 1430 990.363281 1432.328125 C 990.363281 1432.328125 988.371094 1433.808594 978.171875 1435.339844 C 968.570312 1436.78125 979.578125 1399.378906 981.476562 1391.71875 C 976.273438 1361.960938 972.800781 1341.039062 975.851562 1310.070312 "/>
<path fill-rule="nonzero" fill="rgb(26.660156%, 16.868591%, 9.812927%)" fill-opacity="1" d="M 1055.96875 1293.140625 C 1055.96875 1293.140625 1065.429688 1296.800781 1070.800781 1289.511719 C 1076.179688 1282.210938 1067.160156 1277.820312 1067.160156 1277.820312 C 1067.160156 1277.820312 1073.019531 1285.199219 1064.480469 1286.128906 C 1055.929688 1287.050781 1055.871094 1272.699219 1058.878906 1264.78125 C 1067.550781 1241.910156 1062.519531 1226.871094 1058.511719 1218.679688 C 1054.5 1210.488281 1047.359375 1204.488281 1047.359375 1204.488281 L 1042.46875 1201.761719 L 1039.078125 1210.070312 C 1039.078125 1210.070312 1045.238281 1219.46875 1048.351562 1228.140625 C 1051.46875 1236.820312 1052.800781 1247.960938 1045.5 1262.320312 C 1038.199219 1276.691406 1036.371094 1290.800781 1055.96875 1293.140625 "/>
<path fill-rule="nonzero" fill="rgb(31.762695%, 21.972656%, 14.892578%)" fill-opacity="1" d="M 1039.078125 1210.070312 L 1042.46875 1201.761719 C 1042.46875 1201.761719 1052.261719 1196.691406 1059.730469 1216.460938 C 1062.289062 1223.25 1063.628906 1231.398438 1064.179688 1239.601562 C 1060.828125 1251.890625 1051.328125 1266.058594 1046.160156 1278.089844 C 1039.640625 1293.289062 1059.601562 1289.230469 1059.601562 1289.230469 C 1059.601562 1289.230469 1052.949219 1300.488281 1042.949219 1291.808594 C 1031.949219 1282.28125 1041.539062 1266.539062 1045.738281 1258.300781 C 1049.941406 1250.058594 1049.230469 1234.449219 1045.210938 1225.578125 C 1041.179688 1216.699219 1039.078125 1210.070312 1039.078125 1210.070312 "/>
<path fill-rule="nonzero" fill="rgb(26.660156%, 16.868591%, 9.812927%)" fill-opacity="1" d="M 1039.078125 1210.070312 C 1039.078125 1210.070312 1016.730469 1204.140625 1005.511719 1231.199219 C 994.285156 1258.261719 1010.398438 1270.71875 1007.558594 1279.058594 C 1004.730469 1287.410156 997.121094 1288.601562 990.582031 1280.019531 C 990.582031 1280.019531 998.617188 1285.199219 999.8125 1279.351562 C 1001.011719 1273.5 987.660156 1264.941406 988.878906 1242.621094 C 989.304688 1234.78125 990.574219 1228.039062 992.042969 1222.578125 C 995.476562 1214.519531 1000.921875 1206.410156 1009.019531 1201.578125 C 1025.238281 1191.898438 1043.921875 1192.570312 1042.46875 1201.761719 L 1039.078125 1210.070312 "/>
<path fill-rule="nonzero" fill="rgb(57.617188%, 63.476562%, 84.764099%)" fill-opacity="1" d="M 1456.679688 701.128906 C 1456.730469 700.308594 1456.851562 699.5 1456.851562 698.679688 C 1456.851562 667.96875 1422.519531 643.078125 1380.171875 643.078125 C 1337.828125 643.078125 1303.5 667.96875 1303.5 698.679688 C 1303.5 699.5 1303.621094 700.308594 1303.671875 701.128906 L 1456.679688 701.128906 "/>
<path fill-rule="nonzero" fill="rgb(72.459412%, 77.734375%, 91.796875%)" fill-opacity="1" d="M 1310.050781 690.359375 C 1310.050781 690.359375 1316.539062 670.148438 1328.890625 666.320312 L 1338.011719 666.320312 C 1338.011719 666.320312 1327.71875 678.578125 1323.308594 689.851562 L 1310.050781 690.359375 "/>
<path fill-rule="nonzero" fill="rgb(72.459412%, 77.734375%, 91.796875%)" fill-opacity="1" d="M 1338.011719 660.140625 C 1338.011719 660.140625 1350.660156 649.851562 1362.128906 650.730469 C 1362.128906 650.730469 1347.429688 655.140625 1345.371094 660.140625 L 1338.011719 660.140625 "/>
<path fill-rule="nonzero" fill="rgb(40.795898%, 46.263123%, 72.068787%)" fill-opacity="1" d="M 1414.199219 653.671875 C 1414.199219 653.671875 1452.441406 683.671875 1414.199219 688.089844 L 1447.140625 693.378906 C 1447.140625 693.378906 1448.21875 664.261719 1414.199219 653.671875 "/>
<path fill-rule="nonzero" fill="rgb(40.795898%, 46.263123%, 72.068787%)" fill-opacity="1" d="M 1537.191406 743.289062 C 1537.191406 771.660156 1466.890625 794.660156 1380.171875 794.660156 C 1293.460938 794.660156 1223.160156 771.660156 1223.160156 743.289062 C 1223.160156 714.910156 1293.460938 691.910156 1380.171875 691.910156 C 1466.890625 691.910156 1537.191406 714.910156 1537.191406 743.289062 "/>
<path fill-rule="nonzero" fill="rgb(72.459412%, 77.734375%, 91.796875%)" fill-opacity="1" d="M 1527.351562 741.328125 C 1527.351562 766.019531 1461.460938 786.039062 1380.171875 786.039062 C 1298.890625 786.039062 1233 766.019531 1233 741.328125 C 1233 716.628906 1298.890625 696.609375 1380.171875 696.609375 C 1461.460938 696.609375 1527.351562 716.628906 1527.351562 741.328125 "/>
<path fill-rule="nonzero" fill="rgb(57.617188%, 63.476562%, 84.764099%)" fill-opacity="1" d="M 1380.171875 704.648438 C 1450.460938 704.648438 1507.820312 719.78125 1511.179688 738.78125 C 1511.28125 738.191406 1511.339844 737.609375 1511.339844 737.011719 C 1511.339844 717.191406 1452.621094 701.128906 1380.171875 701.128906 C 1307.738281 701.128906 1249.011719 717.191406 1249.011719 737.011719 C 1249.011719 737.609375 1249.070312 738.191406 1249.171875 738.78125 C 1252.53125 719.78125 1309.898438 704.648438 1380.171875 704.648438 "/>
<path fill-rule="nonzero" fill="rgb(20.776367%, 25.097656%, 46.655273%)" fill-opacity="1" d="M 1449.890625 795.480469 C 1449.890625 809.730469 1417.621094 821.28125 1377.820312 821.28125 C 1338.019531 821.28125 1305.761719 809.730469 1305.761719 795.480469 C 1305.761719 781.238281 1338.019531 769.679688 1377.820312 769.679688 C 1417.621094 769.679688 1449.890625 781.238281 1449.890625 795.480469 "/>
<path fill-rule="nonzero" fill="rgb(72.459412%, 77.734375%, 91.796875%)" fill-opacity="1" d="M 1377.820312 813.089844 C 1348.160156 813.089844 1323.28125 805.609375 1316.039062 795.480469 C 1318.871094 807.550781 1345.429688 817.019531 1377.820312 817.019531 C 1410.210938 817.019531 1436.78125 807.550781 1439.609375 795.480469 C 1432.359375 805.609375 1407.488281 813.089844 1377.820312 813.089844 "/>
<path fill-rule="nonzero" fill="rgb(32.93457%, 36.863708%, 60.742188%)" fill-opacity="1" d="M 1569.898438 758.191406 C 1569.898438 781.910156 1484.960938 801.128906 1380.171875 801.128906 C 1275.390625 801.128906 1190.449219 781.910156 1190.449219 758.191406 C 1190.449219 734.46875 1275.390625 715.238281 1380.171875 715.238281 C 1484.960938 715.238281 1569.898438 734.46875 1569.898438 758.191406 "/>
<path fill-rule="nonzero" fill="rgb(40.795898%, 46.263123%, 72.068787%)" fill-opacity="1" d="M 1380.171875 727.410156 C 1472.851562 727.410156 1548.640625 739.101562 1554.578125 753.878906 C 1554.828125 753.261719 1555 752.640625 1555 752.011719 C 1555 736.359375 1476.730469 723.679688 1380.171875 723.679688 C 1283.621094 723.679688 1205.351562 736.359375 1205.351562 752.011719 C 1205.351562 752.640625 1205.519531 753.261719 1205.769531 753.878906 C 1211.710938 739.101562 1287.5 727.410156 1380.171875 727.410156 "/>
<path fill-rule="nonzero" fill="rgb(20.776367%, 25.097656%, 46.655273%)" fill-opacity="1" d="M 1551.289062 758.191406 C 1551.378906 758.589844 1551.46875 758.988281 1551.46875 759.390625 C 1551.46875 776.101562 1473.199219 789.648438 1376.648438 789.648438 C 1292.398438 789.648438 1222.089844 779.328125 1205.53125 765.601562 C 1209.171875 781.761719 1285.949219 794.660156 1380.171875 794.660156 C 1476.730469 794.660156 1555 781.121094 1555 764.398438 C 1555 762.269531 1553.710938 760.199219 1551.289062 758.191406 "/>
<path fill-rule="nonzero" fill="rgb(57.617188%, 63.476562%, 84.764099%)" fill-opacity="1" d="M 1259.671875 757.480469 C 1259.671875 766.320312 1252.511719 773.488281 1243.671875 773.488281 C 1234.828125 773.488281 1227.660156 766.320312 1227.660156 757.480469 C 1227.660156 748.640625 1234.828125 741.46875 1243.671875 741.46875 C 1252.511719 741.46875 1259.671875 748.640625 1259.671875 757.480469 "/>
<path fill-rule="nonzero" fill="rgb(57.617188%, 85.15625%, 88.28125%)" fill-opacity="1" d="M 1255.871094 757.480469 C 1255.871094 764.21875 1250.410156 769.679688 1243.671875 769.679688 C 1236.929688 769.679688 1231.460938 764.21875 1231.460938 757.480469 C 1231.460938 750.738281 1236.929688 745.269531 1243.671875 745.269531 C 1250.410156 745.269531 1255.871094 750.738281 1255.871094 757.480469 "/>
<path fill-rule="nonzero" fill="rgb(81.639099%, 92.1875%, 90.234375%)" fill-opacity="1" d="M 1234.511719 753.488281 L 1240.148438 753.488281 C 1240.148438 753.488281 1236.058594 758.75 1240.851562 765.648438 C 1240.851562 765.648438 1235.21875 767.761719 1234.511719 753.488281 "/>
<path fill-rule="nonzero" fill="rgb(57.617188%, 63.476562%, 84.764099%)" fill-opacity="1" d="M 1313.210938 757.480469 C 1313.210938 766.320312 1306.039062 773.488281 1297.199219 773.488281 C 1288.359375 773.488281 1281.191406 766.320312 1281.191406 757.480469 C 1281.191406 748.640625 1288.359375 741.46875 1297.199219 741.46875 C 1306.039062 741.46875 1313.210938 748.640625 1313.210938 757.480469 "/>
<path fill-rule="nonzero" fill="rgb(57.617188%, 85.15625%, 88.28125%)" fill-opacity="1" d="M 1309.410156 757.480469 C 1309.410156 764.21875 1303.941406 769.679688 1297.199219 769.679688 C 1290.460938 769.679688 1285 764.21875 1285 757.480469 C 1285 750.738281 1290.460938 745.269531 1297.199219 745.269531 C 1303.941406 745.269531 1309.410156 750.738281 1309.410156 757.480469 "/>
<path fill-rule="nonzero" fill="rgb(81.639099%, 92.1875%, 90.234375%)" fill-opacity="1" d="M 1288.050781 753.488281 L 1293.679688 753.488281 C 1293.679688 753.488281 1289.601562 758.75 1294.378906 765.648438 C 1294.378906 765.648438 1288.75 767.761719 1288.050781 753.488281 "/>
<path fill-rule="nonzero" fill="rgb(57.617188%, 63.476562%, 84.764099%)" fill-opacity="1" d="M 1366.738281 757.480469 C 1366.738281 766.320312 1359.578125 773.488281 1350.738281 773.488281 C 1341.890625 773.488281 1334.730469 766.320312 1334.730469 757.480469 C 1334.730469 748.640625 1341.890625 741.46875 1350.738281 741.46875 C 1359.578125 741.46875 1366.738281 748.640625 1366.738281 757.480469 "/>
<path fill-rule="nonzero" fill="rgb(57.617188%, 85.15625%, 88.28125%)" fill-opacity="1" d="M 1362.941406 757.480469 C 1362.941406 764.21875 1357.480469 769.679688 1350.738281 769.679688 C 1344 769.679688 1338.53125 764.21875 1338.53125 757.480469 C 1338.53125 750.738281 1344 745.269531 1350.738281 745.269531 C 1357.480469 745.269531 1362.941406 750.738281 1362.941406 757.480469 "/>
<path fill-rule="nonzero" fill="rgb(81.639099%, 92.1875%, 90.234375%)" fill-opacity="1" d="M 1341.578125 753.488281 L 1347.210938 753.488281 C 1347.210938 753.488281 1343.128906 758.75 1347.921875 765.648438 C 1347.921875 765.648438 1342.289062 767.761719 1341.578125 753.488281 "/>
<path fill-rule="nonzero" fill="rgb(57.617188%, 63.476562%, 84.764099%)" fill-opacity="1" d="M 1420.28125 757.480469 C 1420.28125 766.320312 1413.109375 773.488281 1404.269531 773.488281 C 1395.429688 773.488281 1388.261719 766.320312 1388.261719 757.480469 C 1388.261719 748.640625 1395.429688 741.46875 1404.269531 741.46875 C 1413.109375 741.46875 1420.28125 748.640625 1420.28125 757.480469 "/>
<path fill-rule="nonzero" fill="rgb(57.617188%, 85.15625%, 88.28125%)" fill-opacity="1" d="M 1416.480469 757.480469 C 1416.480469 764.21875 1411.011719 769.679688 1404.269531 769.679688 C 1397.53125 769.679688 1392.070312 764.21875 1392.070312 757.480469 C 1392.070312 750.738281 1397.53125 745.269531 1404.269531 745.269531 C 1411.011719 745.269531 1416.480469 750.738281 1416.480469 757.480469 "/>
<path fill-rule="nonzero" fill="rgb(81.639099%, 92.1875%, 90.234375%)" fill-opacity="1" d="M 1395.121094 753.488281 L 1400.75 753.488281 C 1400.75 753.488281 1396.671875 758.75 1401.449219 765.648438 C 1401.449219 765.648438 1395.820312 767.761719 1395.121094 753.488281 "/>
<path fill-rule="nonzero" fill="rgb(57.617188%, 63.476562%, 84.764099%)" fill-opacity="1" d="M 1473.808594 757.480469 C 1473.808594 766.320312 1466.648438 773.488281 1457.800781 773.488281 C 1448.960938 773.488281 1441.800781 766.320312 1441.800781 757.480469 C 1441.800781 748.640625 1448.960938 741.46875 1457.800781 741.46875 C 1466.648438 741.46875 1473.808594 748.640625 1473.808594 757.480469 "/>
<path fill-rule="nonzero" fill="rgb(57.617188%, 85.15625%, 88.28125%)" fill-opacity="1" d="M 1470.011719 757.480469 C 1470.011719 764.21875 1464.550781 769.679688 1457.800781 769.679688 C 1451.070312 769.679688 1445.601562 764.21875 1445.601562 757.480469 C 1445.601562 750.738281 1451.070312 745.269531 1457.800781 745.269531 C 1464.550781 745.269531 1470.011719 750.738281 1470.011719 757.480469 "/>
<path fill-rule="nonzero" fill="rgb(81.639099%, 92.1875%, 90.234375%)" fill-opacity="1" d="M 1448.648438 753.488281 L 1454.289062 753.488281 C 1454.289062 753.488281 1450.199219 758.75 1454.988281 765.648438 C 1454.988281 765.648438 1449.359375 767.761719 1448.648438 753.488281 "/>
<path fill-rule="nonzero" fill="rgb(57.617188%, 63.476562%, 84.764099%)" fill-opacity="1" d="M 1527.351562 757.480469 C 1527.351562 766.320312 1520.179688 773.488281 1511.339844 773.488281 C 1502.5 773.488281 1495.328125 766.320312 1495.328125 757.480469 C 1495.328125 748.640625 1502.5 741.46875 1511.339844 741.46875 C 1520.179688 741.46875 1527.351562 748.640625 1527.351562 757.480469 "/>
<path fill-rule="nonzero" fill="rgb(57.617188%, 85.15625%, 88.28125%)" fill-opacity="1" d="M 1523.539062 757.480469 C 1523.539062 764.21875 1518.078125 769.679688 1511.339844 769.679688 C 1504.601562 769.679688 1499.140625 764.21875 1499.140625 757.480469 C 1499.140625 750.738281 1504.601562 745.269531 1511.339844 745.269531 C 1518.078125 745.269531 1523.539062 750.738281 1523.539062 757.480469 "/>
<path fill-rule="nonzero" fill="rgb(81.639099%, 92.1875%, 90.234375%)" fill-opacity="1" d="M 1502.191406 753.488281 L 1507.820312 753.488281 C 1507.820312 753.488281 1503.738281 758.75 1508.519531 765.648438 C 1508.519531 765.648438 1502.890625 767.761719 1502.191406 753.488281 "/>
<path fill-rule="nonzero" fill="rgb(40.795898%, 46.263123%, 72.068787%)" fill-opacity="1" d="M 192.496094 926.699219 C 213.570312 995.710938 286.597656 1034.570312 355.605469 1013.488281 C 424.613281 992.421875 463.472656 919.390625 442.398438 850.378906 C 421.324219 781.371094 348.296875 742.519531 279.289062 763.589844 C 210.28125 784.671875 171.421875 857.691406 192.496094 926.699219 "/>
<path fill-rule="nonzero" fill="rgb(32.93457%, 36.863708%, 60.742188%)" fill-opacity="1" d="M 192.496094 926.699219 C 184.175781 899.449219 185.230469 871.589844 193.761719 846.539062 C 259.523438 1021.769531 434.414062 945.53125 435.144531 945.210938 C 419.867188 976.921875 391.921875 1002.410156 355.605469 1013.488281 C 286.597656 1034.570312 213.570312 995.710938 192.496094 926.699219 "/>
<path fill-rule="nonzero" fill="rgb(20.776367%, 25.097656%, 46.655273%)" fill-opacity="1" d="M 186.933594 893.378906 C 187.132812 895.941406 187.542969 900.988281 188.046875 905.570312 C 174.554688 917.03125 167.957031 927.839844 170.597656 936.480469 C 177.777344 960 250.511719 958.621094 333.050781 933.421875 C 415.589844 908.210938 476.679688 868.710938 469.5 845.199219 C 466.65625 835.878906 453.515625 830.480469 433.554688 828.910156 C 432.289062 826.691406 430.253906 823.160156 428.132812 819.640625 C 466.097656 818.980469 492.316406 826.589844 497.160156 842.449219 C 506.390625 872.679688 434.515625 921.429688 336.621094 951.328125 C 238.726562 981.21875 151.878906 980.949219 142.648438 950.71875 C 137.8125 934.890625 155.21875 913.988281 186.933594 893.378906 "/>
<path fill-rule="nonzero" fill="rgb(32.93457%, 36.863708%, 60.742188%)" fill-opacity="1" d="M 363.855469 860.019531 C 367.347656 871.449219 379.449219 877.890625 390.882812 874.398438 C 402.316406 870.910156 408.753906 858.808594 405.261719 847.371094 C 401.769531 835.941406 389.671875 829.5 378.234375 832.988281 C 366.804688 836.480469 360.363281 848.578125 363.855469 860.019531 "/>
<path fill-rule="nonzero" fill="rgb(32.93457%, 36.863708%, 60.742188%)" fill-opacity="1" d="M 297.1875 822.859375 C 298.6875 827.769531 303.890625 830.539062 308.804688 829.039062 C 313.71875 827.53125 316.488281 822.339844 314.984375 817.421875 C 313.484375 812.5 308.28125 809.738281 303.367188 811.238281 C 298.453125 812.738281 295.6875 817.941406 297.1875 822.859375 "/>
<path fill-rule="nonzero" fill="rgb(32.93457%, 36.863708%, 60.742188%)" fill-opacity="1" d="M 266.59375 882.539062 C 268.976562 890.351562 277.242188 894.75 285.050781 892.359375 C 292.855469 889.980469 297.253906 881.71875 294.871094 873.910156 C 292.484375 866.101562 284.222656 861.699219 276.414062 864.089844 C 268.605469 866.46875 264.207031 874.730469 266.59375 882.539062 "/>
<g clip-path="url(#clip-8)">
<g clip-path="url(#clip-9)">
<g clip-path="url(#clip-10)">
<path fill-rule="nonzero" fill="url(#linear-pattern-3)" d="M 284.660156 762.070312 L 278.339844 762.070312 L 278.339844 763.890625 L 284.660156 763.890625 Z M 284.660156 762.070312 "/>
</g>
</g>
</g>
<path fill-rule="nonzero" fill="rgb(59.959412%, 63.476562%, 81.25%)" fill-opacity="1" d="M 437.6875 837.441406 C 437.101562 836.609375 392.695312 774.25 352.785156 774.25 C 352.140625 774.25 351.5 774.261719 350.859375 774.300781 C 350.859375 774.300781 353.5625 783.148438 340.761719 783.148438 C 339.363281 783.148438 337.777344 783.050781 335.984375 782.808594 C 317.785156 780.429688 323.839844 769.050781 331.546875 768.28125 C 331.546875 768.28125 326.53125 765.941406 315.40625 765.941406 C 299.554688 765.941406 271.304688 770.699219 227.5 793.789062 C 241.507812 780.46875 258.671875 770.050781 278.339844 763.890625 C 278.351562 763.878906 278.363281 763.878906 278.375 763.871094 C 278.433594 763.859375 278.496094 763.839844 278.554688 763.820312 C 278.574219 763.808594 278.597656 763.808594 278.617188 763.800781 C 278.671875 763.78125 278.722656 763.769531 278.773438 763.75 C 278.800781 763.738281 278.820312 763.730469 278.84375 763.730469 C 278.898438 763.710938 278.949219 763.699219 279.003906 763.679688 C 279.027344 763.671875 279.042969 763.671875 279.070312 763.660156 C 279.140625 763.640625 279.214844 763.609375 279.289062 763.589844 C 281.078125 763.039062 282.867188 762.539062 284.660156 762.070312 C 295.609375 759.230469 306.632812 757.859375 317.488281 757.859375 C 362.441406 757.859375 404.683594 781.25 428.472656 819.640625 C 428.359375 819.640625 428.246094 819.640625 428.132812 819.640625 C 430.253906 823.160156 432.289062 826.691406 433.554688 828.910156 C 433.605469 828.910156 433.660156 828.910156 433.710938 828.921875 C 435.132812 831.691406 436.457031 834.539062 437.6875 837.441406 "/>
<path fill-rule="nonzero" fill="rgb(46.263123%, 49.021912%, 63.867188%)" fill-opacity="1" d="M 433.710938 828.921875 C 433.660156 828.910156 433.605469 828.910156 433.554688 828.910156 C 432.289062 826.691406 430.253906 823.160156 428.132812 819.640625 C 428.246094 819.640625 428.359375 819.640625 428.472656 819.640625 C 430.335938 822.640625 432.082031 825.738281 433.710938 828.921875 "/>
<path fill-rule="nonzero" fill="rgb(40.795898%, 46.263123%, 72.068787%)" fill-opacity="1" d="M 1365.460938 1599.261719 C 1373.039062 1624.070312 1399.300781 1638.039062 1424.109375 1630.460938 C 1448.921875 1622.878906 1462.898438 1596.628906 1455.320312 1571.808594 C 1447.738281 1547 1421.480469 1533.03125 1396.671875 1540.601562 C 1371.859375 1548.179688 1357.878906 1574.441406 1365.460938 1599.261719 "/>
<path fill-rule="nonzero" fill="rgb(32.93457%, 36.863708%, 60.742188%)" fill-opacity="1" d="M 1365.460938 1599.25 C 1362.46875 1589.460938 1362.851562 1579.441406 1365.921875 1570.429688 C 1389.558594 1633.441406 1452.449219 1606.03125 1452.710938 1605.910156 C 1447.21875 1617.308594 1437.171875 1626.480469 1424.109375 1630.460938 C 1399.300781 1638.039062 1373.039062 1624.070312 1365.460938 1599.25 "/>
<path fill-rule="nonzero" fill="rgb(20.776367%, 25.097656%, 46.655273%)" fill-opacity="1" d="M 1363.460938 1587.269531 C 1363.53125 1588.191406 1363.679688 1590.011719 1363.859375 1591.648438 C 1359.011719 1595.78125 1356.640625 1599.660156 1357.589844 1602.769531 C 1360.171875 1611.230469 1386.320312 1610.730469 1416 1601.671875 C 1445.679688 1592.601562 1467.648438 1578.398438 1465.058594 1569.949219 C 1464.039062 1566.601562 1459.320312 1564.648438 1452.140625 1564.089844 C 1451.679688 1563.289062 1450.949219 1562.019531 1450.191406 1560.761719 C 1463.839844 1560.519531 1473.269531 1563.261719 1475.011719 1568.960938 C 1478.328125 1579.828125 1452.480469 1597.359375 1417.28125 1608.109375 C 1382.078125 1618.859375 1350.859375 1618.761719 1347.539062 1607.890625 C 1345.800781 1602.199219 1352.058594 1594.679688 1363.460938 1587.269531 "/>
<path fill-rule="nonzero" fill="rgb(32.93457%, 36.863708%, 60.742188%)" fill-opacity="1" d="M 1427.078125 1575.28125 C 1428.328125 1579.390625 1432.679688 1581.699219 1436.789062 1580.449219 C 1440.910156 1579.191406 1443.21875 1574.839844 1441.96875 1570.730469 C 1440.710938 1566.621094 1436.359375 1564.300781 1432.25 1565.558594 C 1428.140625 1566.808594 1425.820312 1571.171875 1427.078125 1575.28125 "/>
<path fill-rule="nonzero" fill="rgb(32.93457%, 36.863708%, 60.742188%)" fill-opacity="1" d="M 1403.101562 1561.910156 C 1403.640625 1563.679688 1405.511719 1564.679688 1407.28125 1564.140625 C 1409.050781 1563.601562 1410.039062 1561.730469 1409.5 1559.960938 C 1408.960938 1558.191406 1407.089844 1557.199219 1405.328125 1557.738281 C 1403.558594 1558.28125 1402.558594 1560.148438 1403.101562 1561.910156 "/>
<path fill-rule="nonzero" fill="rgb(32.93457%, 36.863708%, 60.742188%)" fill-opacity="1" d="M 1392.101562 1583.378906 C 1392.960938 1586.179688 1395.929688 1587.761719 1398.738281 1586.910156 C 1401.550781 1586.050781 1403.128906 1583.078125 1402.269531 1580.269531 C 1401.410156 1577.460938 1398.441406 1575.878906 1395.628906 1576.738281 C 1392.828125 1577.601562 1391.25 1580.570312 1392.101562 1583.378906 "/>
<g clip-path="url(#clip-11)">
<g clip-path="url(#clip-12)">
<g clip-path="url(#clip-13)">
<path fill-rule="nonzero" fill="url(#linear-pattern-4)" d="M 1396.671875 1540.601562 L 1395.148438 1540.601562 L 1395.148438 1541.101562 L 1396.671875 1541.101562 Z M 1396.671875 1540.601562 "/>
</g>
</g>
</g>
<path fill-rule="nonzero" fill="rgb(59.959412%, 63.476562%, 81.25%)" fill-opacity="1" d="M 1453.628906 1567.160156 C 1453.410156 1566.859375 1437.449219 1544.441406 1423.101562 1544.441406 C 1422.859375 1544.441406 1422.628906 1544.441406 1422.398438 1544.449219 C 1422.398438 1544.449219 1423.371094 1547.640625 1418.769531 1547.640625 C 1418.269531 1547.640625 1417.699219 1547.601562 1417.058594 1547.519531 C 1410.511719 1546.660156 1412.691406 1542.570312 1415.460938 1542.289062 C 1415.460938 1542.289062 1413.660156 1541.449219 1409.660156 1541.449219 C 1403.960938 1541.449219 1393.800781 1543.160156 1378.050781 1551.460938 C 1382.800781 1546.941406 1388.570312 1543.351562 1395.148438 1541.101562 C 1395.160156 1541.089844 1395.160156 1541.089844 1395.171875 1541.089844 C 1395.210938 1541.078125 1395.238281 1541.058594 1395.28125 1541.050781 C 1395.300781 1541.050781 1395.320312 1541.039062 1395.339844 1541.03125 C 1395.359375 1541.03125 1395.378906 1541.019531 1395.398438 1541.011719 C 1395.429688 1541 1395.46875 1540.988281 1395.5 1540.980469 C 1395.511719 1540.96875 1395.519531 1540.96875 1395.53125 1540.96875 C 1395.570312 1540.949219 1395.609375 1540.941406 1395.648438 1540.929688 L 1395.660156 1540.929688 C 1395.699219 1540.910156 1395.75 1540.898438 1395.789062 1540.878906 C 1395.800781 1540.878906 1395.800781 1540.878906 1395.808594 1540.878906 C 1395.851562 1540.859375 1395.898438 1540.851562 1395.941406 1540.828125 L 1395.949219 1540.828125 C 1396.089844 1540.78125 1396.230469 1540.738281 1396.371094 1540.699219 C 1396.378906 1540.691406 1396.378906 1540.691406 1396.378906 1540.691406 C 1396.429688 1540.679688 1396.46875 1540.660156 1396.519531 1540.648438 L 1396.53125 1540.648438 C 1396.578125 1540.628906 1396.621094 1540.621094 1396.671875 1540.601562 C 1401.238281 1539.210938 1405.859375 1538.539062 1410.398438 1538.539062 C 1426.570312 1538.539062 1441.761719 1546.949219 1450.308594 1560.761719 C 1450.269531 1560.761719 1450.230469 1560.761719 1450.191406 1560.761719 C 1450.949219 1562.019531 1451.679688 1563.289062 1452.140625 1564.089844 C 1452.160156 1564.089844 1452.179688 1564.089844 1452.191406 1564.089844 C 1452.699219 1565.089844 1453.179688 1566.109375 1453.628906 1567.160156 "/>
<path fill-rule="nonzero" fill="rgb(46.263123%, 49.021912%, 63.867188%)" fill-opacity="1" d="M 1452.191406 1564.089844 C 1452.179688 1564.089844 1452.160156 1564.089844 1452.140625 1564.089844 C 1451.679688 1563.289062 1450.949219 1562.019531 1450.191406 1560.761719 C 1450.230469 1560.761719 1450.269531 1560.761719 1450.308594 1560.761719 C 1450.980469 1561.839844 1451.609375 1562.949219 1452.191406 1564.089844 "/>
<path fill-rule="nonzero" fill="rgb(40.795898%, 46.263123%, 72.068787%)" fill-opacity="1" d="M 794.234375 755.859375 L 794.234375 755.851562 C 794.601562 755.339844 794.953125 754.820312 795.292969 754.28125 L 844.007812 682.03125 L 802.257812 715.621094 L 885.136719 622.789062 L 788.046875 705.109375 L 827.328125 659.039062 L 752.992188 706.871094 C 750.640625 708.019531 748.441406 709.441406 746.433594 711.089844 C 739.785156 716.570312 735.269531 724.628906 734.519531 733.890625 C 733.042969 752.070312 746.578125 768 764.757812 769.480469 C 776.710938 770.449219 787.695312 764.921875 794.234375 755.859375 "/>
<path fill-rule="nonzero" fill="rgb(100%, 100%, 100%)" fill-opacity="1" d="M 263.785156 1054.808594 C 260.609375 1054.371094 256.226562 1054.089844 251.101562 1054.808594 C 245.300781 1055.621094 240.710938 1057.398438 237.621094 1058.890625 C 229.933594 1041.050781 212.285156 1029.441406 192.863281 1029.441406 C 169.816406 1029.441406 150.816406 1042.300781 148.109375 1058.890625 L 132.785156 1058.890625 C 118.773438 1058.890625 107.417969 1070.238281 107.417969 1084.25 C 107.417969 1098.261719 118.773438 1109.621094 132.785156 1109.621094 L 264.605469 1109.621094 C 278.425781 1108.140625 289.054688 1097.128906 289.972656 1084.25 C 291 1069.769531 279.503906 1056.140625 263.785156 1054.808594 "/>
</svg>
